<svg xmlns="http://www.w3.org/2000/svg" xmlns:xlink="http://www.w3.org/1999/xlink" width="500" zoomAndPan="magnify" viewBox="0 0 375 374.999991" height="500" preserveAspectRatio="xMidYMid meet" version="1.2"><defs><clipPath id="56849cbdb9"><path d="M 82 132.746094 L 277 132.746094 L 277 257 L 82 257 Z M 82 132.746094 "/></clipPath></defs><g id="bd496f7e44"><rect x="0" width="375" y="0" height="374.999991" style="fill:#ffffff;fill-opacity:1;stroke:none;"/><rect x="0" width="375" y="0" height="374.999991" style="fill:#000000;fill-opacity:1;stroke:none;"/><g clip-rule="nonzero" clip-path="url(#56849cbdb9)"><path style=" stroke:none;fill-rule:nonzero;fill:#0debeb;fill-opacity:1;" d="M 238.109375 132.761719 C 290.417969 138.117188 286.003906 182.542969 245.070312 215.167969 C 209.4375 244.191406 161.550781 258.722656 127.019531 256.355469 C 65.773438 251.839844 69.625 201.574219 124.910156 165.183594 C 160.761719 142.0625 77.503906 189.546875 86.371094 227.28125 C 89.746094 247.71875 118.265625 252.609375 139.0625 251.742188 C 240.699219 246.324219 324.890625 146.945312 238.109375 132.761719 Z M 238.109375 132.761719 "/></g><path style=" stroke:none;fill-rule:nonzero;fill:#0debeb;fill-opacity:1;" d="M 237.351562 147.824219 C 271.246094 154.390625 254.761719 193.046875 211.371094 213.632812 C 242.585938 192.527344 272.503906 160.695312 237.351562 147.824219 Z M 237.351562 147.824219 "/><g style="fill:#ef1bba;fill-opacity:1;"><g transform="translate(118.775444, 192.581032)"><path style="stroke:none" d="M 24.578125 -3.984375 C 24.253906 -3.148438 23.707031 -2.539062 22.9375 -2.15625 L 19.4375 -0.390625 C 19.019531 -0.128906 18.570312 0 18.09375 0 L 1.6875 0 L 13.015625 -31.25 L 53.328125 -31.25 L 50.59375 -23.71875 L 31.734375 -23.71875 L 30.09375 -19.15625 L 46.9375 -19.15625 L 44.359375 -12.09375 L 27.5 -12.09375 Z M 24.578125 -3.984375 "/></g></g><g style="fill:#ef1bba;fill-opacity:1;"><g transform="translate(161.975366, 192.581032)"><path style="stroke:none" d="M 25.78125 -9.40625 L 25.109375 -14.96875 L 19.6875 0 L 1.6875 0 L 13.015625 -31.25 L 43.921875 -31.25 C 47.535156 -31.25 50.125 -30.507812 51.6875 -29.03125 C 53.257812 -27.5625 53.488281 -25.273438 52.375 -22.171875 L 50.5 -17.09375 C 50.269531 -16.414062 49.882812 -15.765625 49.34375 -15.140625 C 48.800781 -14.515625 48.160156 -13.992188 47.421875 -13.578125 L 40.609375 -10.125 C 40.191406 -9.875 39.757812 -9.691406 39.3125 -9.578125 C 38.863281 -9.460938 38.414062 -9.40625 37.96875 -9.40625 Z M 28.265625 -23.71875 L 25.828125 -16.9375 L 30 -16.9375 C 30.675781 -16.9375 31.332031 -17.171875 31.96875 -17.640625 C 32.601562 -18.109375 33.035156 -18.660156 33.265625 -19.296875 L 33.984375 -21.359375 C 34.242188 -22.035156 34.21875 -22.597656 33.90625 -23.046875 C 33.601562 -23.492188 33.132812 -23.71875 32.5 -23.71875 Z M 28.265625 -23.71875 "/></g></g><g style="fill:#ef1bba;fill-opacity:1;"><g transform="translate(207.623282, 192.581032)"><path style="stroke:none" d="M 21.796875 0 L 1.6875 0 L 13.015625 -31.25 L 47.328125 -31.25 C 50.941406 -31.25 53.53125 -30.507812 55.09375 -29.03125 C 56.664062 -27.5625 56.894531 -25.273438 55.78125 -22.171875 L 54.09375 -17.65625 C 53.875 -17.019531 53.425781 -16.382812 52.75 -15.75 L 49.53125 -12.90625 C 48.925781 -12.363281 48.367188 -12.007812 47.859375 -11.84375 C 47.347656 -11.6875 46.816406 -11.609375 46.265625 -11.609375 L 45.40625 -11.609375 L 50.359375 -0.28125 L 50.25 0 L 30.28125 0 L 26.40625 -12.71875 Z M 30.390625 -23.71875 L 27.84375 -16.65625 L 30.09375 -16.65625 C 30.769531 -16.65625 31.4375 -16.894531 32.09375 -17.375 C 32.75 -17.851562 33.1875 -18.398438 33.40625 -19.015625 L 34.21875 -21.359375 C 34.476562 -22.035156 34.457031 -22.597656 34.15625 -23.046875 C 33.851562 -23.492188 33.378906 -23.71875 32.734375 -23.71875 Z M 30.390625 -23.71875 "/></g></g><g style="fill:#0debeb;fill-opacity:1;"><g transform="translate(22.591744, 146.477474)"><path style="stroke:none" d="M 5.609375 -3.5625 L 5.359375 -2.421875 L 2.296875 -2.421875 L 1.78125 0 L 0.171875 0 L 1.484375 -6.125 L 6.8125 -6.125 L 6.546875 -4.90625 L 2.828125 -4.90625 L 2.546875 -3.5625 Z M 5.609375 -3.5625 "/></g></g><g style="fill:#0debeb;fill-opacity:1;"><g transform="translate(30.452461, 146.477474)"><path style="stroke:none" d="M 5.140625 0 L 0.171875 0 L 1.484375 -6.125 L 3.09375 -6.125 L 2.046875 -1.25 L 5.40625 -1.25 Z M 5.140625 0 "/></g></g><g style="fill:#0debeb;fill-opacity:1;"><g transform="translate(37.937189, 146.477474)"><path style="stroke:none" d="M 5.9375 -3.6875 L 5.6875 -2.53125 L 2.328125 -2.53125 L 2.046875 -1.21875 L 6.109375 -1.21875 L 5.859375 0 L 0.171875 0 L 1.484375 -6.125 L 7.0625 -6.125 L 6.796875 -4.90625 L 2.828125 -4.90625 L 2.578125 -3.6875 Z M 5.9375 -3.6875 "/></g></g><g style="fill:#0debeb;fill-opacity:1;"><g transform="translate(46.226349, 146.477474)"><path style="stroke:none" d="M 6.65625 -2.390625 C 6.613281 -2.234375 6.570312 -2.070312 6.53125 -1.90625 C 6.488281 -1.738281 6.429688 -1.578125 6.359375 -1.421875 C 6.285156 -1.265625 6.195312 -1.113281 6.09375 -0.96875 C 5.988281 -0.820312 5.859375 -0.679688 5.703125 -0.546875 C 5.515625 -0.378906 5.3125 -0.25 5.09375 -0.15625 C 4.882812 -0.0625 4.671875 0.00390625 4.453125 0.046875 C 4.234375 0.0976562 4.007812 0.128906 3.78125 0.140625 C 3.5625 0.160156 3.34375 0.171875 3.125 0.171875 C 2.976562 0.171875 2.816406 0.164062 2.640625 0.15625 C 2.472656 0.15625 2.296875 0.140625 2.109375 0.109375 C 1.929688 0.078125 1.753906 0.03125 1.578125 -0.03125 C 1.398438 -0.101562 1.238281 -0.203125 1.09375 -0.328125 C 0.925781 -0.460938 0.78125 -0.644531 0.65625 -0.875 C 0.539062 -1.101562 0.484375 -1.378906 0.484375 -1.703125 C 0.484375 -1.796875 0.488281 -1.898438 0.5 -2.015625 C 0.507812 -2.140625 0.53125 -2.265625 0.5625 -2.390625 L 1.359375 -6.125 L 2.96875 -6.125 L 2.203125 -2.5625 C 2.179688 -2.46875 2.164062 -2.375 2.15625 -2.28125 C 2.144531 -2.195312 2.140625 -2.117188 2.140625 -2.046875 C 2.140625 -1.859375 2.171875 -1.707031 2.234375 -1.59375 C 2.304688 -1.476562 2.382812 -1.390625 2.46875 -1.328125 C 2.601562 -1.222656 2.753906 -1.15625 2.921875 -1.125 C 3.097656 -1.09375 3.253906 -1.078125 3.390625 -1.078125 C 3.648438 -1.078125 3.875 -1.109375 4.0625 -1.171875 C 4.25 -1.234375 4.40625 -1.320312 4.53125 -1.4375 C 4.695312 -1.582031 4.816406 -1.753906 4.890625 -1.953125 C 4.960938 -2.148438 5.023438 -2.351562 5.078125 -2.5625 L 5.84375 -6.125 L 7.453125 -6.125 Z M 6.65625 -2.390625 "/></g></g><g style="fill:#0debeb;fill-opacity:1;"><g transform="translate(55.249997, 146.477474)"><path style="stroke:none" d="M 2.515625 -3.40625 L 4.171875 -3.40625 C 4.335938 -3.40625 4.5 -3.421875 4.65625 -3.453125 C 4.8125 -3.492188 4.941406 -3.550781 5.046875 -3.625 C 5.160156 -3.71875 5.238281 -3.8125 5.28125 -3.90625 C 5.320312 -4.007812 5.34375 -4.113281 5.34375 -4.21875 C 5.34375 -4.300781 5.328125 -4.394531 5.296875 -4.5 C 5.273438 -4.601562 5.207031 -4.691406 5.09375 -4.765625 C 5.03125 -4.804688 4.945312 -4.835938 4.84375 -4.859375 C 4.75 -4.890625 4.609375 -4.90625 4.421875 -4.90625 L 2.828125 -4.90625 Z M 1.484375 -6.125 L 4.921875 -6.125 C 5.242188 -6.125 5.507812 -6.109375 5.71875 -6.078125 C 5.925781 -6.046875 6.113281 -6 6.28125 -5.9375 C 6.4375 -5.863281 6.566406 -5.773438 6.671875 -5.671875 C 6.773438 -5.578125 6.859375 -5.472656 6.921875 -5.359375 C 6.984375 -5.242188 7.023438 -5.128906 7.046875 -5.015625 C 7.078125 -4.898438 7.09375 -4.789062 7.09375 -4.6875 C 7.09375 -4.101562 6.894531 -3.648438 6.5 -3.328125 C 6.363281 -3.210938 6.207031 -3.117188 6.03125 -3.046875 C 5.863281 -2.972656 5.695312 -2.921875 5.53125 -2.890625 L 5.53125 -2.859375 C 5.625 -2.847656 5.71875 -2.820312 5.8125 -2.78125 C 5.914062 -2.738281 6.003906 -2.679688 6.078125 -2.609375 C 6.148438 -2.535156 6.207031 -2.441406 6.25 -2.328125 C 6.289062 -2.210938 6.3125 -2.09375 6.3125 -1.96875 C 6.3125 -1.90625 6.304688 -1.828125 6.296875 -1.734375 C 6.285156 -1.640625 6.28125 -1.582031 6.28125 -1.5625 L 6.171875 -0.875 C 6.148438 -0.769531 6.140625 -0.640625 6.140625 -0.484375 C 6.140625 -0.335938 6.171875 -0.175781 6.234375 0 L 4.53125 0 C 4.488281 -0.101562 4.457031 -0.21875 4.4375 -0.34375 C 4.425781 -0.46875 4.4375 -0.613281 4.46875 -0.78125 L 4.546875 -1.28125 C 4.566406 -1.425781 4.570312 -1.566406 4.5625 -1.703125 C 4.550781 -1.847656 4.488281 -1.972656 4.375 -2.078125 C 4.363281 -2.078125 4.34375 -2.085938 4.3125 -2.109375 C 4.289062 -2.128906 4.25 -2.148438 4.1875 -2.171875 C 4.132812 -2.191406 4.066406 -2.207031 3.984375 -2.21875 C 3.898438 -2.238281 3.796875 -2.25 3.671875 -2.25 L 2.265625 -2.25 L 1.78125 0 L 0.171875 0 Z M 1.484375 -6.125 "/></g></g><g style="fill:#0debeb;fill-opacity:1;"><g transform="translate(64.17746, 146.477474)"><path style="stroke:none" d="M 3.09375 -6.125 L 1.78125 0 L 0.171875 0 L 1.484375 -6.125 Z M 3.09375 -6.125 "/></g></g><g style="fill:#0debeb;fill-opacity:1;"><g transform="translate(68.881641, 146.477474)"><path style="stroke:none" d="M 5.9375 -3.6875 L 5.6875 -2.53125 L 2.328125 -2.53125 L 2.046875 -1.21875 L 6.109375 -1.21875 L 5.859375 0 L 0.171875 0 L 1.484375 -6.125 L 7.0625 -6.125 L 6.796875 -4.90625 L 2.828125 -4.90625 L 2.578125 -3.6875 Z M 5.9375 -3.6875 "/></g></g><g style="fill:#0debeb;fill-opacity:1;"><g transform="translate(77.170802, 146.477474)"><path style="stroke:none" d="M 6.65625 -2.390625 C 6.613281 -2.234375 6.570312 -2.070312 6.53125 -1.90625 C 6.488281 -1.738281 6.429688 -1.578125 6.359375 -1.421875 C 6.285156 -1.265625 6.195312 -1.113281 6.09375 -0.96875 C 5.988281 -0.820312 5.859375 -0.679688 5.703125 -0.546875 C 5.515625 -0.378906 5.3125 -0.25 5.09375 -0.15625 C 4.882812 -0.0625 4.671875 0.00390625 4.453125 0.046875 C 4.234375 0.0976562 4.007812 0.128906 3.78125 0.140625 C 3.5625 0.160156 3.34375 0.171875 3.125 0.171875 C 2.976562 0.171875 2.816406 0.164062 2.640625 0.15625 C 2.472656 0.15625 2.296875 0.140625 2.109375 0.109375 C 1.929688 0.078125 1.753906 0.03125 1.578125 -0.03125 C 1.398438 -0.101562 1.238281 -0.203125 1.09375 -0.328125 C 0.925781 -0.460938 0.78125 -0.644531 0.65625 -0.875 C 0.539062 -1.101562 0.484375 -1.378906 0.484375 -1.703125 C 0.484375 -1.796875 0.488281 -1.898438 0.5 -2.015625 C 0.507812 -2.140625 0.53125 -2.265625 0.5625 -2.390625 L 1.359375 -6.125 L 2.96875 -6.125 L 2.203125 -2.5625 C 2.179688 -2.46875 2.164062 -2.375 2.15625 -2.28125 C 2.144531 -2.195312 2.140625 -2.117188 2.140625 -2.046875 C 2.140625 -1.859375 2.171875 -1.707031 2.234375 -1.59375 C 2.304688 -1.476562 2.382812 -1.390625 2.46875 -1.328125 C 2.601562 -1.222656 2.753906 -1.15625 2.921875 -1.125 C 3.097656 -1.09375 3.253906 -1.078125 3.390625 -1.078125 C 3.648438 -1.078125 3.875 -1.109375 4.0625 -1.171875 C 4.25 -1.234375 4.40625 -1.320312 4.53125 -1.4375 C 4.695312 -1.582031 4.816406 -1.753906 4.890625 -1.953125 C 4.960938 -2.148438 5.023438 -2.351562 5.078125 -2.5625 L 5.84375 -6.125 L 7.453125 -6.125 Z M 6.65625 -2.390625 "/></g></g><g style="fill:#0debeb;fill-opacity:1;"><g transform="translate(86.194449, 146.477474)"><path style="stroke:none" d=""/></g></g><g style="fill:#0debeb;fill-opacity:1;"><g transform="translate(89.980525, 146.477474)"><path style="stroke:none" d="M 2.46875 -3.21875 L 3.96875 -3.21875 C 4.125 -3.21875 4.296875 -3.234375 4.484375 -3.265625 C 4.671875 -3.296875 4.832031 -3.363281 4.96875 -3.46875 C 5.0625 -3.550781 5.140625 -3.65625 5.203125 -3.78125 C 5.273438 -3.90625 5.3125 -4.054688 5.3125 -4.234375 C 5.3125 -4.441406 5.238281 -4.609375 5.09375 -4.734375 C 5.007812 -4.804688 4.914062 -4.851562 4.8125 -4.875 C 4.707031 -4.894531 4.617188 -4.90625 4.546875 -4.90625 L 2.828125 -4.90625 Z M 4.765625 -6.125 C 4.929688 -6.125 5.097656 -6.117188 5.265625 -6.109375 C 5.441406 -6.097656 5.609375 -6.070312 5.765625 -6.03125 C 5.921875 -6 6.066406 -5.945312 6.203125 -5.875 C 6.347656 -5.800781 6.476562 -5.703125 6.59375 -5.578125 C 6.6875 -5.460938 6.773438 -5.300781 6.859375 -5.09375 C 6.941406 -4.894531 6.984375 -4.640625 6.984375 -4.328125 C 6.984375 -4.171875 6.960938 -3.976562 6.921875 -3.75 C 6.878906 -3.53125 6.78125 -3.304688 6.625 -3.078125 C 6.488281 -2.867188 6.320312 -2.691406 6.125 -2.546875 C 5.925781 -2.410156 5.710938 -2.300781 5.484375 -2.21875 C 5.304688 -2.15625 5.09375 -2.101562 4.84375 -2.0625 C 4.601562 -2.03125 4.289062 -2.015625 3.90625 -2.015625 L 2.21875 -2.015625 L 1.78125 0 L 0.171875 0 L 1.484375 -6.125 Z M 4.765625 -6.125 "/></g></g><g style="fill:#0debeb;fill-opacity:1;"><g transform="translate(98.532, 146.477474)"><path style="stroke:none" d="M 5.9375 -3.6875 L 5.6875 -2.53125 L 2.328125 -2.53125 L 2.046875 -1.21875 L 6.109375 -1.21875 L 5.859375 0 L 0.171875 0 L 1.484375 -6.125 L 7.0625 -6.125 L 6.796875 -4.90625 L 2.828125 -4.90625 L 2.578125 -3.6875 Z M 5.9375 -3.6875 "/></g></g><g style="fill:#0debeb;fill-opacity:1;"><g transform="translate(106.821161, 146.477474)"><path style="stroke:none" d="M 2.515625 -3.40625 L 4.171875 -3.40625 C 4.335938 -3.40625 4.5 -3.421875 4.65625 -3.453125 C 4.8125 -3.492188 4.941406 -3.550781 5.046875 -3.625 C 5.160156 -3.71875 5.238281 -3.8125 5.28125 -3.90625 C 5.320312 -4.007812 5.34375 -4.113281 5.34375 -4.21875 C 5.34375 -4.300781 5.328125 -4.394531 5.296875 -4.5 C 5.273438 -4.601562 5.207031 -4.691406 5.09375 -4.765625 C 5.03125 -4.804688 4.945312 -4.835938 4.84375 -4.859375 C 4.75 -4.890625 4.609375 -4.90625 4.421875 -4.90625 L 2.828125 -4.90625 Z M 1.484375 -6.125 L 4.921875 -6.125 C 5.242188 -6.125 5.507812 -6.109375 5.71875 -6.078125 C 5.925781 -6.046875 6.113281 -6 6.28125 -5.9375 C 6.4375 -5.863281 6.566406 -5.773438 6.671875 -5.671875 C 6.773438 -5.578125 6.859375 -5.472656 6.921875 -5.359375 C 6.984375 -5.242188 7.023438 -5.128906 7.046875 -5.015625 C 7.078125 -4.898438 7.09375 -4.789062 7.09375 -4.6875 C 7.09375 -4.101562 6.894531 -3.648438 6.5 -3.328125 C 6.363281 -3.210938 6.207031 -3.117188 6.03125 -3.046875 C 5.863281 -2.972656 5.695312 -2.921875 5.53125 -2.890625 L 5.53125 -2.859375 C 5.625 -2.847656 5.71875 -2.820312 5.8125 -2.78125 C 5.914062 -2.738281 6.003906 -2.679688 6.078125 -2.609375 C 6.148438 -2.535156 6.207031 -2.441406 6.25 -2.328125 C 6.289062 -2.210938 6.3125 -2.09375 6.3125 -1.96875 C 6.3125 -1.90625 6.304688 -1.828125 6.296875 -1.734375 C 6.285156 -1.640625 6.28125 -1.582031 6.28125 -1.5625 L 6.171875 -0.875 C 6.148438 -0.769531 6.140625 -0.640625 6.140625 -0.484375 C 6.140625 -0.335938 6.171875 -0.175781 6.234375 0 L 4.53125 0 C 4.488281 -0.101562 4.457031 -0.21875 4.4375 -0.34375 C 4.425781 -0.46875 4.4375 -0.613281 4.46875 -0.78125 L 4.546875 -1.28125 C 4.566406 -1.425781 4.570312 -1.566406 4.5625 -1.703125 C 4.550781 -1.847656 4.488281 -1.972656 4.375 -2.078125 C 4.363281 -2.078125 4.34375 -2.085938 4.3125 -2.109375 C 4.289062 -2.128906 4.25 -2.148438 4.1875 -2.171875 C 4.132812 -2.191406 4.066406 -2.207031 3.984375 -2.21875 C 3.898438 -2.238281 3.796875 -2.25 3.671875 -2.25 L 2.265625 -2.25 L 1.78125 0 L 0.171875 0 Z M 1.484375 -6.125 "/></g></g><g style="fill:#0debeb;fill-opacity:1;"><g transform="translate(115.748624, 146.477474)"><path style="stroke:none" d="M 5.609375 -3.5625 L 5.359375 -2.421875 L 2.296875 -2.421875 L 1.78125 0 L 0.171875 0 L 1.484375 -6.125 L 6.8125 -6.125 L 6.546875 -4.90625 L 2.828125 -4.90625 L 2.546875 -3.5625 Z M 5.609375 -3.5625 "/></g></g><g style="fill:#0debeb;fill-opacity:1;"><g transform="translate(123.60934, 146.477474)"><path style="stroke:none" d="M 6.046875 -3.34375 C 6.046875 -3.664062 6.003906 -3.925781 5.921875 -4.125 C 5.835938 -4.320312 5.75 -4.484375 5.65625 -4.609375 C 5.46875 -4.804688 5.257812 -4.929688 5.03125 -4.984375 C 4.800781 -5.046875 4.582031 -5.078125 4.375 -5.078125 C 4.113281 -5.078125 3.863281 -5.039062 3.625 -4.96875 C 3.382812 -4.90625 3.15625 -4.773438 2.9375 -4.578125 C 2.851562 -4.492188 2.769531 -4.394531 2.6875 -4.28125 C 2.601562 -4.175781 2.523438 -4.046875 2.453125 -3.890625 C 2.378906 -3.742188 2.320312 -3.578125 2.28125 -3.390625 C 2.238281 -3.203125 2.21875 -3 2.21875 -2.78125 C 2.21875 -2.59375 2.242188 -2.378906 2.296875 -2.140625 C 2.347656 -1.910156 2.460938 -1.703125 2.640625 -1.515625 C 2.835938 -1.316406 3.050781 -1.1875 3.28125 -1.125 C 3.507812 -1.070312 3.71875 -1.046875 3.90625 -1.046875 C 4.113281 -1.046875 4.34375 -1.070312 4.59375 -1.125 C 4.851562 -1.1875 5.101562 -1.320312 5.34375 -1.53125 C 5.53125 -1.695312 5.691406 -1.925781 5.828125 -2.21875 C 5.972656 -2.519531 6.046875 -2.894531 6.046875 -3.34375 Z M 7.796875 -3.40625 C 7.796875 -3.0625 7.753906 -2.75 7.671875 -2.46875 C 7.597656 -2.1875 7.503906 -1.929688 7.390625 -1.703125 C 7.273438 -1.484375 7.144531 -1.289062 7 -1.125 C 6.863281 -0.96875 6.722656 -0.832031 6.578125 -0.71875 C 6.265625 -0.457031 5.878906 -0.242188 5.421875 -0.078125 C 4.972656 0.0859375 4.429688 0.171875 3.796875 0.171875 C 3.242188 0.171875 2.769531 0.109375 2.375 -0.015625 C 1.976562 -0.148438 1.660156 -0.316406 1.421875 -0.515625 C 1.304688 -0.609375 1.191406 -0.71875 1.078125 -0.84375 C 0.960938 -0.976562 0.859375 -1.132812 0.765625 -1.3125 C 0.679688 -1.488281 0.609375 -1.691406 0.546875 -1.921875 C 0.492188 -2.160156 0.46875 -2.425781 0.46875 -2.71875 C 0.46875 -3.0625 0.503906 -3.375 0.578125 -3.65625 C 0.648438 -3.945312 0.742188 -4.203125 0.859375 -4.421875 C 0.984375 -4.648438 1.113281 -4.847656 1.25 -5.015625 C 1.394531 -5.191406 1.539062 -5.335938 1.6875 -5.453125 C 1.90625 -5.640625 2.132812 -5.789062 2.375 -5.90625 C 2.613281 -6.019531 2.851562 -6.101562 3.09375 -6.15625 C 3.332031 -6.21875 3.566406 -6.253906 3.796875 -6.265625 C 4.035156 -6.285156 4.269531 -6.296875 4.5 -6.296875 C 4.6875 -6.296875 4.878906 -6.289062 5.078125 -6.28125 C 5.273438 -6.269531 5.472656 -6.242188 5.671875 -6.203125 C 5.878906 -6.160156 6.082031 -6.09375 6.28125 -6 C 6.476562 -5.914062 6.664062 -5.800781 6.84375 -5.65625 C 6.957031 -5.5625 7.066406 -5.445312 7.171875 -5.3125 C 7.285156 -5.1875 7.390625 -5.03125 7.484375 -4.84375 C 7.578125 -4.664062 7.648438 -4.457031 7.703125 -4.21875 C 7.765625 -3.988281 7.796875 -3.71875 7.796875 -3.40625 Z M 7.796875 -3.40625 "/></g></g><g style="fill:#0debeb;fill-opacity:1;"><g transform="translate(133.393702, 146.477474)"><path style="stroke:none" d="M 2.515625 -3.40625 L 4.171875 -3.40625 C 4.335938 -3.40625 4.5 -3.421875 4.65625 -3.453125 C 4.8125 -3.492188 4.941406 -3.550781 5.046875 -3.625 C 5.160156 -3.71875 5.238281 -3.8125 5.28125 -3.90625 C 5.320312 -4.007812 5.34375 -4.113281 5.34375 -4.21875 C 5.34375 -4.300781 5.328125 -4.394531 5.296875 -4.5 C 5.273438 -4.601562 5.207031 -4.691406 5.09375 -4.765625 C 5.03125 -4.804688 4.945312 -4.835938 4.84375 -4.859375 C 4.75 -4.890625 4.609375 -4.90625 4.421875 -4.90625 L 2.828125 -4.90625 Z M 1.484375 -6.125 L 4.921875 -6.125 C 5.242188 -6.125 5.507812 -6.109375 5.71875 -6.078125 C 5.925781 -6.046875 6.113281 -6 6.28125 -5.9375 C 6.4375 -5.863281 6.566406 -5.773438 6.671875 -5.671875 C 6.773438 -5.578125 6.859375 -5.472656 6.921875 -5.359375 C 6.984375 -5.242188 7.023438 -5.128906 7.046875 -5.015625 C 7.078125 -4.898438 7.09375 -4.789062 7.09375 -4.6875 C 7.09375 -4.101562 6.894531 -3.648438 6.5 -3.328125 C 6.363281 -3.210938 6.207031 -3.117188 6.03125 -3.046875 C 5.863281 -2.972656 5.695312 -2.921875 5.53125 -2.890625 L 5.53125 -2.859375 C 5.625 -2.847656 5.71875 -2.820312 5.8125 -2.78125 C 5.914062 -2.738281 6.003906 -2.679688 6.078125 -2.609375 C 6.148438 -2.535156 6.207031 -2.441406 6.25 -2.328125 C 6.289062 -2.210938 6.3125 -2.09375 6.3125 -1.96875 C 6.3125 -1.90625 6.304688 -1.828125 6.296875 -1.734375 C 6.285156 -1.640625 6.28125 -1.582031 6.28125 -1.5625 L 6.171875 -0.875 C 6.148438 -0.769531 6.140625 -0.640625 6.140625 -0.484375 C 6.140625 -0.335938 6.171875 -0.175781 6.234375 0 L 4.53125 0 C 4.488281 -0.101562 4.457031 -0.21875 4.4375 -0.34375 C 4.425781 -0.46875 4.4375 -0.613281 4.46875 -0.78125 L 4.546875 -1.28125 C 4.566406 -1.425781 4.570312 -1.566406 4.5625 -1.703125 C 4.550781 -1.847656 4.488281 -1.972656 4.375 -2.078125 C 4.363281 -2.078125 4.34375 -2.085938 4.3125 -2.109375 C 4.289062 -2.128906 4.25 -2.148438 4.1875 -2.171875 C 4.132812 -2.191406 4.066406 -2.207031 3.984375 -2.21875 C 3.898438 -2.238281 3.796875 -2.25 3.671875 -2.25 L 2.265625 -2.25 L 1.78125 0 L 0.171875 0 Z M 1.484375 -6.125 "/></g></g><g style="fill:#0debeb;fill-opacity:1;"><g transform="translate(142.321165, 146.477474)"><path style="stroke:none" d="M 2.75 -4.5625 L 2.6875 -4.5625 L 2.640625 -4.046875 L 1.78125 0 L 0.171875 0 L 1.484375 -6.125 L 3.75 -6.125 L 4.546875 -1.6875 L 4.578125 -1.6875 L 7.265625 -6.125 L 9.53125 -6.125 L 8.234375 0 L 6.625 0 L 7.484375 -4.046875 L 7.65625 -4.5625 L 7.59375 -4.5625 L 4.78125 0 L 3.625 0 Z M 2.75 -4.5625 "/></g></g><g style="fill:#0debeb;fill-opacity:1;"><g transform="translate(153.469568, 146.477474)"><path style="stroke:none" d="M 4.40625 -2.296875 L 3.953125 -4.578125 L 2.53125 -2.296875 Z M 1.125 0 L -0.5625 0 L 3.484375 -6.125 L 5.078125 -6.125 L 6.515625 0 L 4.84375 0 L 4.5625 -1.25 L 1.921875 -1.25 Z M 1.125 0 "/></g></g><g style="fill:#0debeb;fill-opacity:1;"><g transform="translate(162.125977, 146.477474)"><path style="stroke:none" d="M 6.4375 0 L 4.875 0 L 2.65625 -4.109375 L 1.78125 0 L 0.171875 0 L 1.484375 -6.125 L 3.046875 -6.125 L 5.265625 -2.015625 L 6.140625 -6.125 L 7.75 -6.125 Z M 6.4375 0 "/></g></g><g style="fill:#0debeb;fill-opacity:1;"><g transform="translate(171.481895, 146.477474)"><path style="stroke:none" d="M 7.109375 -2.15625 C 7.066406 -1.914062 7.003906 -1.695312 6.921875 -1.5 C 6.835938 -1.3125 6.738281 -1.140625 6.625 -0.984375 C 6.519531 -0.828125 6.40625 -0.691406 6.28125 -0.578125 C 6.164062 -0.472656 6.050781 -0.382812 5.9375 -0.3125 C 5.601562 -0.101562 5.242188 0.0234375 4.859375 0.078125 C 4.484375 0.140625 4.128906 0.171875 3.796875 0.171875 C 3.609375 0.171875 3.410156 0.160156 3.203125 0.140625 C 2.992188 0.128906 2.785156 0.0976562 2.578125 0.046875 C 2.378906 0.00390625 2.179688 -0.0546875 1.984375 -0.140625 C 1.785156 -0.222656 1.597656 -0.335938 1.421875 -0.484375 C 1.304688 -0.578125 1.191406 -0.691406 1.078125 -0.828125 C 0.960938 -0.972656 0.859375 -1.132812 0.765625 -1.3125 C 0.679688 -1.488281 0.609375 -1.691406 0.546875 -1.921875 C 0.492188 -2.148438 0.46875 -2.40625 0.46875 -2.6875 C 0.46875 -3.300781 0.578125 -3.835938 0.796875 -4.296875 C 1.023438 -4.765625 1.316406 -5.148438 1.671875 -5.453125 C 1.898438 -5.640625 2.128906 -5.789062 2.359375 -5.90625 C 2.597656 -6.019531 2.832031 -6.101562 3.0625 -6.15625 C 3.289062 -6.21875 3.515625 -6.253906 3.734375 -6.265625 C 3.953125 -6.285156 4.15625 -6.296875 4.34375 -6.296875 C 4.46875 -6.296875 4.625 -6.289062 4.8125 -6.28125 C 5 -6.28125 5.195312 -6.257812 5.40625 -6.21875 C 5.613281 -6.1875 5.816406 -6.132812 6.015625 -6.0625 C 6.222656 -5.988281 6.414062 -5.882812 6.59375 -5.75 C 6.789062 -5.59375 6.96875 -5.378906 7.125 -5.109375 C 7.28125 -4.835938 7.359375 -4.523438 7.359375 -4.171875 L 7.359375 -4.078125 L 5.671875 -4.078125 L 5.671875 -4.140625 C 5.671875 -4.304688 5.628906 -4.445312 5.546875 -4.5625 C 5.472656 -4.6875 5.390625 -4.78125 5.296875 -4.84375 C 5.191406 -4.914062 5.0625 -4.972656 4.90625 -5.015625 C 4.75 -5.054688 4.5625 -5.078125 4.34375 -5.078125 C 4.144531 -5.078125 3.921875 -5.046875 3.671875 -4.984375 C 3.421875 -4.921875 3.179688 -4.789062 2.953125 -4.59375 C 2.742188 -4.40625 2.566406 -4.148438 2.421875 -3.828125 C 2.285156 -3.503906 2.21875 -3.140625 2.21875 -2.734375 C 2.21875 -2.554688 2.242188 -2.359375 2.296875 -2.140625 C 2.347656 -1.921875 2.457031 -1.71875 2.625 -1.53125 C 2.738281 -1.40625 2.890625 -1.289062 3.078125 -1.1875 C 3.265625 -1.09375 3.515625 -1.046875 3.828125 -1.046875 C 3.859375 -1.046875 3.910156 -1.046875 3.984375 -1.046875 C 4.054688 -1.054688 4.140625 -1.066406 4.234375 -1.078125 C 4.335938 -1.097656 4.441406 -1.125 4.546875 -1.15625 C 4.660156 -1.1875 4.765625 -1.226562 4.859375 -1.28125 C 4.898438 -1.3125 4.945312 -1.347656 5 -1.390625 C 5.050781 -1.429688 5.101562 -1.484375 5.15625 -1.546875 C 5.21875 -1.617188 5.273438 -1.703125 5.328125 -1.796875 C 5.378906 -1.898438 5.414062 -2.019531 5.4375 -2.15625 Z M 7.109375 -2.15625 "/></g></g><g style="fill:#0debeb;fill-opacity:1;"><g transform="translate(180.627956, 146.477474)"><path style="stroke:none" d="M 5.9375 -3.6875 L 5.6875 -2.53125 L 2.328125 -2.53125 L 2.046875 -1.21875 L 6.109375 -1.21875 L 5.859375 0 L 0.171875 0 L 1.484375 -6.125 L 7.0625 -6.125 L 6.796875 -4.90625 L 2.828125 -4.90625 L 2.578125 -3.6875 Z M 5.9375 -3.6875 "/></g></g><g style="fill:#0debeb;fill-opacity:1;"><g transform="translate(188.917116, 146.477474)"><path style="stroke:none" d=""/></g></g><g style="fill:#0debeb;fill-opacity:1;"><g transform="translate(192.703192, 146.477474)"><path style="stroke:none" d="M 2.515625 -3.40625 L 4.171875 -3.40625 C 4.335938 -3.40625 4.5 -3.421875 4.65625 -3.453125 C 4.8125 -3.492188 4.941406 -3.550781 5.046875 -3.625 C 5.160156 -3.71875 5.238281 -3.8125 5.28125 -3.90625 C 5.320312 -4.007812 5.34375 -4.113281 5.34375 -4.21875 C 5.34375 -4.300781 5.328125 -4.394531 5.296875 -4.5 C 5.273438 -4.601562 5.207031 -4.691406 5.09375 -4.765625 C 5.03125 -4.804688 4.945312 -4.835938 4.84375 -4.859375 C 4.75 -4.890625 4.609375 -4.90625 4.421875 -4.90625 L 2.828125 -4.90625 Z M 1.484375 -6.125 L 4.921875 -6.125 C 5.242188 -6.125 5.507812 -6.109375 5.71875 -6.078125 C 5.925781 -6.046875 6.113281 -6 6.28125 -5.9375 C 6.4375 -5.863281 6.566406 -5.773438 6.671875 -5.671875 C 6.773438 -5.578125 6.859375 -5.472656 6.921875 -5.359375 C 6.984375 -5.242188 7.023438 -5.128906 7.046875 -5.015625 C 7.078125 -4.898438 7.09375 -4.789062 7.09375 -4.6875 C 7.09375 -4.101562 6.894531 -3.648438 6.5 -3.328125 C 6.363281 -3.210938 6.207031 -3.117188 6.03125 -3.046875 C 5.863281 -2.972656 5.695312 -2.921875 5.53125 -2.890625 L 5.53125 -2.859375 C 5.625 -2.847656 5.71875 -2.820312 5.8125 -2.78125 C 5.914062 -2.738281 6.003906 -2.679688 6.078125 -2.609375 C 6.148438 -2.535156 6.207031 -2.441406 6.25 -2.328125 C 6.289062 -2.210938 6.3125 -2.09375 6.3125 -1.96875 C 6.3125 -1.90625 6.304688 -1.828125 6.296875 -1.734375 C 6.285156 -1.640625 6.28125 -1.582031 6.28125 -1.5625 L 6.171875 -0.875 C 6.148438 -0.769531 6.140625 -0.640625 6.140625 -0.484375 C 6.140625 -0.335938 6.171875 -0.175781 6.234375 0 L 4.53125 0 C 4.488281 -0.101562 4.457031 -0.21875 4.4375 -0.34375 C 4.425781 -0.46875 4.4375 -0.613281 4.46875 -0.78125 L 4.546875 -1.28125 C 4.566406 -1.425781 4.570312 -1.566406 4.5625 -1.703125 C 4.550781 -1.847656 4.488281 -1.972656 4.375 -2.078125 C 4.363281 -2.078125 4.34375 -2.085938 4.3125 -2.109375 C 4.289062 -2.128906 4.25 -2.148438 4.1875 -2.171875 C 4.132812 -2.191406 4.066406 -2.207031 3.984375 -2.21875 C 3.898438 -2.238281 3.796875 -2.25 3.671875 -2.25 L 2.265625 -2.25 L 1.78125 0 L 0.171875 0 Z M 1.484375 -6.125 "/></g></g><g style="fill:#0debeb;fill-opacity:1;"><g transform="translate(201.630655, 146.477474)"><path style="stroke:none" d="M 4.40625 -2.296875 L 3.953125 -4.578125 L 2.53125 -2.296875 Z M 1.125 0 L -0.5625 0 L 3.484375 -6.125 L 5.078125 -6.125 L 6.515625 0 L 4.84375 0 L 4.5625 -1.25 L 1.921875 -1.25 Z M 1.125 0 "/></g></g><g style="fill:#0debeb;fill-opacity:1;"><g transform="translate(210.287064, 146.477474)"><path style="stroke:none" d="M 7.109375 -2.15625 C 7.066406 -1.914062 7.003906 -1.695312 6.921875 -1.5 C 6.835938 -1.3125 6.738281 -1.140625 6.625 -0.984375 C 6.519531 -0.828125 6.40625 -0.691406 6.28125 -0.578125 C 6.164062 -0.472656 6.050781 -0.382812 5.9375 -0.3125 C 5.601562 -0.101562 5.242188 0.0234375 4.859375 0.078125 C 4.484375 0.140625 4.128906 0.171875 3.796875 0.171875 C 3.609375 0.171875 3.410156 0.160156 3.203125 0.140625 C 2.992188 0.128906 2.785156 0.0976562 2.578125 0.046875 C 2.378906 0.00390625 2.179688 -0.0546875 1.984375 -0.140625 C 1.785156 -0.222656 1.597656 -0.335938 1.421875 -0.484375 C 1.304688 -0.578125 1.191406 -0.691406 1.078125 -0.828125 C 0.960938 -0.972656 0.859375 -1.132812 0.765625 -1.3125 C 0.679688 -1.488281 0.609375 -1.691406 0.546875 -1.921875 C 0.492188 -2.148438 0.46875 -2.40625 0.46875 -2.6875 C 0.46875 -3.300781 0.578125 -3.835938 0.796875 -4.296875 C 1.023438 -4.765625 1.316406 -5.148438 1.671875 -5.453125 C 1.898438 -5.640625 2.128906 -5.789062 2.359375 -5.90625 C 2.597656 -6.019531 2.832031 -6.101562 3.0625 -6.15625 C 3.289062 -6.21875 3.515625 -6.253906 3.734375 -6.265625 C 3.953125 -6.285156 4.15625 -6.296875 4.34375 -6.296875 C 4.46875 -6.296875 4.625 -6.289062 4.8125 -6.28125 C 5 -6.28125 5.195312 -6.257812 5.40625 -6.21875 C 5.613281 -6.1875 5.816406 -6.132812 6.015625 -6.0625 C 6.222656 -5.988281 6.414062 -5.882812 6.59375 -5.75 C 6.789062 -5.59375 6.96875 -5.378906 7.125 -5.109375 C 7.28125 -4.835938 7.359375 -4.523438 7.359375 -4.171875 L 7.359375 -4.078125 L 5.671875 -4.078125 L 5.671875 -4.140625 C 5.671875 -4.304688 5.628906 -4.445312 5.546875 -4.5625 C 5.472656 -4.6875 5.390625 -4.78125 5.296875 -4.84375 C 5.191406 -4.914062 5.0625 -4.972656 4.90625 -5.015625 C 4.75 -5.054688 4.5625 -5.078125 4.34375 -5.078125 C 4.144531 -5.078125 3.921875 -5.046875 3.671875 -4.984375 C 3.421875 -4.921875 3.179688 -4.789062 2.953125 -4.59375 C 2.742188 -4.40625 2.566406 -4.148438 2.421875 -3.828125 C 2.285156 -3.503906 2.21875 -3.140625 2.21875 -2.734375 C 2.21875 -2.554688 2.242188 -2.359375 2.296875 -2.140625 C 2.347656 -1.921875 2.457031 -1.71875 2.625 -1.53125 C 2.738281 -1.40625 2.890625 -1.289062 3.078125 -1.1875 C 3.265625 -1.09375 3.515625 -1.046875 3.828125 -1.046875 C 3.859375 -1.046875 3.910156 -1.046875 3.984375 -1.046875 C 4.054688 -1.054688 4.140625 -1.066406 4.234375 -1.078125 C 4.335938 -1.097656 4.441406 -1.125 4.546875 -1.15625 C 4.660156 -1.1875 4.765625 -1.226562 4.859375 -1.28125 C 4.898438 -1.3125 4.945312 -1.347656 5 -1.390625 C 5.050781 -1.429688 5.101562 -1.484375 5.15625 -1.546875 C 5.21875 -1.617188 5.273438 -1.703125 5.328125 -1.796875 C 5.378906 -1.898438 5.414062 -2.019531 5.4375 -2.15625 Z M 7.109375 -2.15625 "/></g></g><g style="fill:#0debeb;fill-opacity:1;"><g transform="translate(219.433125, 146.477474)"><path style="stroke:none" d="M 3.09375 -6.125 L 1.78125 0 L 0.171875 0 L 1.484375 -6.125 Z M 3.09375 -6.125 "/></g></g><g style="fill:#0debeb;fill-opacity:1;"><g transform="translate(224.137306, 146.477474)"><path style="stroke:none" d="M 6.4375 0 L 4.875 0 L 2.65625 -4.109375 L 1.78125 0 L 0.171875 0 L 1.484375 -6.125 L 3.046875 -6.125 L 5.265625 -2.015625 L 6.140625 -6.125 L 7.75 -6.125 Z M 6.4375 0 "/></g></g><g style="fill:#0debeb;fill-opacity:1;"><g transform="translate(233.493214, 146.477474)"><path style="stroke:none" d="M 7.375 -3.28125 L 6.671875 0 L 5.53125 0 L 5.59375 -0.890625 C 5.488281 -0.710938 5.363281 -0.554688 5.21875 -0.421875 C 5.070312 -0.285156 4.882812 -0.164062 4.65625 -0.0625 C 4.425781 0.03125 4.195312 0.09375 3.96875 0.125 C 3.738281 0.15625 3.515625 0.171875 3.296875 0.171875 C 3.117188 0.171875 2.941406 0.160156 2.765625 0.140625 C 2.597656 0.128906 2.429688 0.0976562 2.265625 0.046875 C 2.097656 0.00390625 1.9375 -0.0546875 1.78125 -0.140625 C 1.625 -0.222656 1.472656 -0.332031 1.328125 -0.46875 C 1.066406 -0.707031 0.859375 -1.003906 0.703125 -1.359375 C 0.546875 -1.722656 0.46875 -2.160156 0.46875 -2.671875 C 0.46875 -3.078125 0.515625 -3.429688 0.609375 -3.734375 C 0.703125 -4.046875 0.8125 -4.3125 0.9375 -4.53125 C 1.0625 -4.757812 1.191406 -4.945312 1.328125 -5.09375 C 1.460938 -5.25 1.578125 -5.367188 1.671875 -5.453125 C 1.898438 -5.640625 2.132812 -5.789062 2.375 -5.90625 C 2.613281 -6.019531 2.851562 -6.101562 3.09375 -6.15625 C 3.34375 -6.21875 3.585938 -6.253906 3.828125 -6.265625 C 4.078125 -6.285156 4.316406 -6.296875 4.546875 -6.296875 C 4.703125 -6.296875 4.863281 -6.289062 5.03125 -6.28125 C 5.207031 -6.28125 5.382812 -6.257812 5.5625 -6.21875 C 5.75 -6.1875 5.929688 -6.132812 6.109375 -6.0625 C 6.285156 -5.988281 6.457031 -5.890625 6.625 -5.765625 C 6.71875 -5.691406 6.8125 -5.601562 6.90625 -5.5 C 7 -5.40625 7.082031 -5.289062 7.15625 -5.15625 C 7.238281 -5.019531 7.300781 -4.867188 7.34375 -4.703125 C 7.394531 -4.546875 7.421875 -4.367188 7.421875 -4.171875 L 7.421875 -4.078125 L 5.734375 -4.078125 L 5.734375 -4.125 C 5.734375 -4.238281 5.71875 -4.335938 5.6875 -4.421875 C 5.65625 -4.503906 5.613281 -4.578125 5.5625 -4.640625 C 5.519531 -4.703125 5.472656 -4.753906 5.421875 -4.796875 C 5.367188 -4.835938 5.328125 -4.867188 5.296875 -4.890625 C 5.171875 -4.960938 5.03125 -5.007812 4.875 -5.03125 C 4.726562 -5.0625 4.578125 -5.078125 4.421875 -5.078125 C 4.316406 -5.078125 4.203125 -5.070312 4.078125 -5.0625 C 3.960938 -5.050781 3.84375 -5.023438 3.71875 -4.984375 C 3.59375 -4.953125 3.460938 -4.90625 3.328125 -4.84375 C 3.203125 -4.78125 3.078125 -4.691406 2.953125 -4.578125 C 2.859375 -4.503906 2.769531 -4.40625 2.6875 -4.28125 C 2.601562 -4.164062 2.523438 -4.03125 2.453125 -3.875 C 2.378906 -3.71875 2.320312 -3.546875 2.28125 -3.359375 C 2.238281 -3.171875 2.21875 -2.960938 2.21875 -2.734375 C 2.21875 -2.648438 2.222656 -2.554688 2.234375 -2.453125 C 2.242188 -2.359375 2.257812 -2.253906 2.28125 -2.140625 C 2.3125 -2.035156 2.351562 -1.925781 2.40625 -1.8125 C 2.46875 -1.695312 2.539062 -1.59375 2.625 -1.5 C 2.71875 -1.394531 2.816406 -1.3125 2.921875 -1.25 C 3.035156 -1.1875 3.144531 -1.140625 3.25 -1.109375 C 3.363281 -1.085938 3.46875 -1.070312 3.5625 -1.0625 C 3.65625 -1.050781 3.734375 -1.046875 3.796875 -1.046875 C 3.992188 -1.046875 4.191406 -1.070312 4.390625 -1.125 C 4.585938 -1.175781 4.765625 -1.257812 4.921875 -1.375 C 5.066406 -1.46875 5.191406 -1.59375 5.296875 -1.75 C 5.410156 -1.90625 5.5 -2.082031 5.5625 -2.28125 L 4.140625 -2.28125 L 4.34375 -3.28125 Z M 7.375 -3.28125 "/></g></g></g></svg>