<svg xmlns="http://www.w3.org/2000/svg" xmlns:xlink="http://www.w3.org/1999/xlink" width="500" zoomAndPan="magnify" viewBox="0 0 375 374.999991" height="500" preserveAspectRatio="xMidYMid meet" version="1.2"><defs><clipPath id="ee4518ada1"><path d="M 267 135.613281 L 357 135.613281 L 357 193 L 267 193 Z M 267 135.613281 "/></clipPath></defs><g id="50676671b1"><rect x="0" width="375" y="0" height="374.999991" style="fill:#ffffff;fill-opacity:1;stroke:none;"/><rect x="0" width="375" y="0" height="374.999991" style="fill:#000000;fill-opacity:1;stroke:none;"/><g clip-rule="nonzero" clip-path="url(#ee4518ada1)"><path style=" stroke:none;fill-rule:nonzero;fill:#0debeb;fill-opacity:1;" d="M 339.171875 135.617188 C 363.394531 138.097656 361.351562 158.671875 342.398438 173.777344 C 325.894531 187.21875 303.71875 193.945312 287.726562 192.851562 C 259.367188 190.761719 261.148438 167.484375 286.75 150.628906 C 303.355469 139.925781 264.800781 161.914062 268.90625 179.386719 C 270.46875 188.851562 283.675781 191.117188 293.304688 190.714844 C 340.371094 188.207031 379.359375 142.183594 339.171875 135.617188 Z M 339.171875 135.617188 "/></g><path style=" stroke:none;fill-rule:nonzero;fill:#0debeb;fill-opacity:1;" d="M 338.820312 142.59375 C 354.519531 145.632812 346.882812 163.535156 326.792969 173.066406 C 341.246094 163.292969 355.101562 148.550781 338.820312 142.59375 Z M 338.820312 142.59375 "/><g style="fill:#ef1bba;fill-opacity:1;"><g transform="translate(55.201602, 157.332352)"><path style="stroke:none" d="M 5.796875 -14.8125 L 7.5 -19.53125 L 35.34375 -19.53125 L 33.625 -14.8125 L 26.40625 -14.8125 L 21.9375 -2.484375 C 21.726562 -1.984375 21.394531 -1.601562 20.9375 -1.34375 L 18.75 -0.234375 C 18.488281 -0.078125 18.195312 0 17.875 0 L 7.65625 0 L 13.015625 -14.8125 Z M 5.796875 -14.8125 "/></g></g><g style="fill:#ef1bba;fill-opacity:1;"><g transform="translate(83.88157, 157.332352)"><path style="stroke:none" d="M 25.53125 -16.890625 L 23.671875 -11.765625 L 18.421875 -11.765625 C 18.273438 -11.765625 18.148438 -11.753906 18.046875 -11.734375 C 17.953125 -11.710938 17.828125 -11.648438 17.671875 -11.546875 L 15.390625 -10.078125 L 11.734375 0 L 1.171875 0 L 7.296875 -16.890625 L 16.375 -16.890625 L 16.59375 -14.578125 L 20.015625 -16.890625 Z M 25.53125 -16.890625 "/></g></g><g style="fill:#ef1bba;fill-opacity:1;"><g transform="translate(103.801556, 157.332352)"><path style="stroke:none" d="M 27.953125 -16.890625 C 28.859375 -16.890625 29.515625 -16.570312 29.921875 -15.9375 C 30.335938 -15.3125 30.375 -14.550781 30.03125 -13.65625 L 25.078125 0 L 15.296875 0 L 15.421875 -2.125 L 11.765625 0 L 6.1875 0 C 5.695312 0 5.296875 -0.128906 4.984375 -0.390625 L 2.703125 -2.21875 C 2.460938 -2.4375 2.320312 -2.71875 2.28125 -3.0625 C 2.238281 -3.414062 2.289062 -3.785156 2.4375 -4.171875 L 3.8125 -7.984375 C 4.050781 -8.578125 4.46875 -9.035156 5.0625 -9.359375 L 7.203125 -10.46875 C 7.359375 -10.570312 7.519531 -10.640625 7.6875 -10.671875 C 7.863281 -10.710938 8.03125 -10.734375 8.1875 -10.734375 L 18.421875 -10.734375 L 18.71875 -11.546875 C 18.84375 -11.910156 18.828125 -12.210938 18.671875 -12.453125 C 18.523438 -12.691406 18.257812 -12.8125 17.875 -12.8125 L 6.953125 -12.8125 L 8.4375 -16.890625 Z M 13.265625 -5.34375 C 13.140625 -4.976562 13.148438 -4.675781 13.296875 -4.4375 C 13.453125 -4.195312 13.707031 -4.078125 14.0625 -4.078125 L 15.984375 -4.078125 L 17.0625 -7.046875 L 13.890625 -7.046875 Z M 13.265625 -5.34375 "/></g></g><g style="fill:#ef1bba;fill-opacity:1;"><g transform="translate(129.931528, 157.332352)"><path style="stroke:none" d="M 10.40625 -16.890625 L 28.796875 -16.890625 L 27.328125 -12.8125 L 18.546875 -12.8125 C 18.222656 -12.8125 17.882812 -12.691406 17.53125 -12.453125 C 17.1875 -12.210938 16.953125 -11.910156 16.828125 -11.546875 L 14.546875 -5.34375 C 14.429688 -4.976562 14.457031 -4.675781 14.625 -4.4375 C 14.789062 -4.195312 15.035156 -4.078125 15.359375 -4.078125 L 24.15625 -4.078125 L 22.6875 0 L 7.140625 0 C 6.921875 0 6.707031 -0.03125 6.5 -0.09375 C 6.289062 -0.15625 6.113281 -0.253906 5.96875 -0.390625 L 3.1875 -3.0625 C 2.6875 -3.5625 2.570312 -4.191406 2.84375 -4.953125 L 6 -13.65625 C 6.21875 -14.25 6.5625 -14.789062 7.03125 -15.28125 C 7.5 -15.769531 8.035156 -16.160156 8.640625 -16.453125 C 9.242188 -16.742188 9.832031 -16.890625 10.40625 -16.890625 Z M 10.40625 -16.890625 "/></g></g><g style="fill:#ef1bba;fill-opacity:1;"><g transform="translate(153.451504, 157.332352)"><path style="stroke:none" d="M 19.4375 -21.625 L 14.96875 -9.328125 L 23.21875 -16.890625 L 33.953125 -16.890625 L 33.9375 -16.796875 L 24.9375 -8.484375 L 27.90625 -0.1875 L 27.84375 0 L 17.09375 0 L 14.34375 -7.59375 L 11.578125 0 L 1.046875 0 L 8.90625 -21.625 Z M 19.4375 -21.625 "/></g></g><g style="fill:#ef1bba;fill-opacity:1;"><g transform="translate(181.501475, 157.332352)"><path style="stroke:none" d="M 5.796875 -14.8125 L 7.5 -19.53125 L 35.34375 -19.53125 L 33.625 -14.8125 L 26.40625 -14.8125 L 21.9375 -2.484375 C 21.726562 -1.984375 21.394531 -1.601562 20.9375 -1.34375 L 18.75 -0.234375 C 18.488281 -0.078125 18.195312 0 17.875 0 L 7.65625 0 L 13.015625 -14.8125 Z M 5.796875 -14.8125 "/></g></g><g style="fill:#ef1bba;fill-opacity:1;"><g transform="translate(210.181443, 157.332352)"><path style="stroke:none" d="M 25.796875 0 L 15.203125 0 L 19.40625 -11.546875 C 19.53125 -11.910156 19.515625 -12.210938 19.359375 -12.453125 C 19.210938 -12.691406 18.957031 -12.8125 18.59375 -12.8125 L 16.234375 -12.8125 L 11.578125 0 L 1.046875 0 L 8.90625 -21.625 L 19.4375 -21.625 L 17.25 -15.65625 L 19.34375 -16.890625 L 27.84375 -16.890625 C 29.15625 -16.890625 30.035156 -16.539062 30.484375 -15.84375 C 30.941406 -15.144531 30.929688 -14.132812 30.453125 -12.8125 Z M 25.796875 0 "/></g></g><g style="fill:#ef1bba;fill-opacity:1;"><g transform="translate(237.031421, 157.332352)"><path style="stroke:none" d="M 3.1875 -3.0625 C 2.6875 -3.5625 2.570312 -4.191406 2.84375 -4.953125 L 5.40625 -11.96875 C 6 -13.644531 7.007812 -14.882812 8.4375 -15.6875 C 9.875 -16.488281 11.5625 -16.890625 13.5 -16.890625 L 24.84375 -16.890625 C 26.800781 -16.890625 28.203125 -16.488281 29.046875 -15.6875 C 29.898438 -14.882812 30.03125 -13.644531 29.4375 -11.96875 L 28.625 -9.78125 C 28.34375 -8.976562 27.769531 -8.347656 26.90625 -7.890625 L 23.28125 -6.0625 C 23.0625 -5.914062 22.828125 -5.804688 22.578125 -5.734375 C 22.328125 -5.671875 22.09375 -5.640625 21.875 -5.640625 L 15.453125 -5.640625 L 14.09375 -7.984375 L 13.140625 -5.34375 C 13.015625 -4.976562 13.03125 -4.675781 13.1875 -4.4375 C 13.351562 -4.195312 13.609375 -4.078125 13.953125 -4.078125 L 25.796875 -4.078125 L 24.328125 0 L 7.140625 0 C 6.921875 0 6.707031 -0.03125 6.5 -0.09375 C 6.289062 -0.15625 6.113281 -0.253906 5.96875 -0.390625 Z M 15.421875 -11.546875 L 14.734375 -9.6875 L 17.96875 -9.6875 C 18.3125 -9.6875 18.65625 -9.816406 19 -10.078125 C 19.351562 -10.335938 19.597656 -10.648438 19.734375 -11.015625 L 19.953125 -11.546875 C 20.066406 -11.910156 20.039062 -12.210938 19.875 -12.453125 C 19.707031 -12.691406 19.453125 -12.8125 19.109375 -12.8125 L 17.15625 -12.8125 C 16.800781 -12.8125 16.453125 -12.691406 16.109375 -12.453125 C 15.765625 -12.210938 15.535156 -11.910156 15.421875 -11.546875 Z M 15.421875 -11.546875 "/></g></g><g style="fill:#ef1bba;fill-opacity:1;"><g transform="translate(262.741384, 157.332352)"><path style="stroke:none" d="M 6.1875 0 C 5.664062 0 5.285156 -0.128906 5.046875 -0.390625 L 2.671875 -2.21875 C 2.234375 -2.71875 2.15625 -3.367188 2.4375 -4.171875 L 5.28125 -11.96875 C 5.882812 -13.644531 6.898438 -14.882812 8.328125 -15.6875 C 9.753906 -16.488281 11.4375 -16.890625 13.375 -16.890625 L 25.765625 -16.890625 C 26.285156 -16.890625 26.675781 -16.75 26.9375 -16.46875 L 29.25 -14.671875 C 29.75 -14.128906 29.859375 -13.476562 29.578125 -12.71875 L 26.734375 -4.921875 C 26.109375 -3.242188 25.085938 -2.003906 23.671875 -1.203125 C 22.253906 -0.398438 20.5625 0 18.59375 0 Z M 12.953125 -5.34375 C 12.835938 -4.976562 12.863281 -4.675781 13.03125 -4.4375 C 13.207031 -4.195312 13.472656 -4.078125 13.828125 -4.078125 L 15 -4.078125 C 15.34375 -4.078125 15.679688 -4.195312 16.015625 -4.4375 C 16.359375 -4.675781 16.585938 -4.976562 16.703125 -5.34375 L 18.984375 -11.546875 C 19.109375 -11.910156 19.082031 -12.210938 18.90625 -12.453125 C 18.738281 -12.691406 18.476562 -12.8125 18.125 -12.8125 L 16.953125 -12.8125 C 16.628906 -12.8125 16.289062 -12.691406 15.9375 -12.453125 C 15.59375 -12.210938 15.359375 -11.910156 15.234375 -11.546875 Z M 12.953125 -5.34375 "/></g></g><g style="fill:#ef1bba;fill-opacity:1;"><g transform="translate(288.601367, 157.332352)"><path style="stroke:none" d="M 25.53125 -16.890625 L 23.671875 -11.765625 L 18.421875 -11.765625 C 18.273438 -11.765625 18.148438 -11.753906 18.046875 -11.734375 C 17.953125 -11.710938 17.828125 -11.648438 17.671875 -11.546875 L 15.390625 -10.078125 L 11.734375 0 L 1.171875 0 L 7.296875 -16.890625 L 16.375 -16.890625 L 16.59375 -14.578125 L 20.015625 -16.890625 Z M 25.53125 -16.890625 "/></g></g><g style="fill:#ef1bba;fill-opacity:1;"><g transform="translate(308.521364, 157.332352)"><path style="stroke:none" d="M 20.640625 4.625 L 10.34375 4.625 L 12.78125 0 L 8.015625 0 C 7.515625 0 7.132812 -0.140625 6.875 -0.421875 L 4.40625 -2.28125 C 4.007812 -2.738281 3.921875 -3.390625 4.140625 -4.234375 L 6.546875 -16.890625 L 16.796875 -16.890625 L 14.34375 -5.453125 C 14.28125 -5.140625 14.25 -4.847656 14.25 -4.578125 C 14.25 -4.304688 14.421875 -4.171875 14.765625 -4.171875 L 14.90625 -4.171875 L 21.359375 -16.890625 L 31.625 -16.890625 Z M 20.640625 4.625 "/></g></g></g></svg>