<svg xmlns="http://www.w3.org/2000/svg" xmlns:xlink="http://www.w3.org/1999/xlink" width="500" zoomAndPan="magnify" viewBox="0 0 375 374.999991" height="500" preserveAspectRatio="xMidYMid meet" version="1.2"><defs><clipPath id="eae9441f24"><path d="M 2 110.535156 L 93 110.535156 L 93 168 L 2 168 Z M 2 110.535156 "/></clipPath></defs><g id="ce185f11d3"><rect x="0" width="375" y="0" height="374.999991" style="fill:#ffffff;fill-opacity:1;stroke:none;"/><rect x="0" width="375" y="0" height="374.999991" style="fill:#ef1bba;fill-opacity:1;stroke:none;"/><g clip-rule="nonzero" clip-path="url(#eae9441f24)"><path style=" stroke:none;fill-rule:nonzero;fill:#0debeb;fill-opacity:1;" d="M 74.273438 110.542969 C 98.5 113.023438 96.453125 133.59375 77.5 148.703125 C 61 162.144531 38.824219 168.871094 22.832031 167.777344 C -5.53125 165.683594 -3.746094 142.410156 21.855469 125.554688 C 38.457031 114.851562 -0.0976562 136.839844 4.007812 154.3125 C 5.570312 163.777344 18.777344 166.042969 28.410156 165.640625 C 75.476562 163.132812 114.464844 117.109375 74.273438 110.542969 Z M 74.273438 110.542969 "/></g><path style=" stroke:none;fill-rule:nonzero;fill:#0debeb;fill-opacity:1;" d="M 73.925781 117.519531 C 89.621094 120.558594 81.988281 138.460938 61.894531 147.992188 C 76.347656 138.21875 90.203125 123.476562 73.925781 117.519531 Z M 73.925781 117.519531 "/><g style="fill:#000000;fill-opacity:1;"><g transform="translate(83.597153, 161.478095)"><path style="stroke:none" d="M 3.410156 -15.683594 L 5.726562 -22.0625 L 38.953125 -22.0625 L 35.402344 -12.289062 L 26.398438 -12.289062 L 26.398438 -14.820312 L 28.78125 -13.957031 L 24.296875 -1.589844 L 24.28125 -1.550781 C 23.859375 -0.5 23.160156 0.300781 22.183594 0.855469 L 22.136719 0.882812 L 19.894531 2.019531 L 18.75 -0.238281 L 20.078125 1.914062 C 19.410156 2.324219 18.675781 2.53125 17.878906 2.53125 L 4.039062 2.53125 L 10.640625 -15.683594 L 13.019531 -14.820312 L 13.019531 -12.289062 L 2.179688 -12.289062 Z M 8.167969 -13.957031 L 5.789062 -14.820312 L 5.789062 -17.351562 L 16.628906 -17.351562 L 10.03125 0.863281 L 7.648438 0 L 7.648438 -2.53125 L 17.878906 -2.53125 C 17.722656 -2.53125 17.570312 -2.484375 17.421875 -2.394531 L 17.511719 -2.449219 L 19.796875 -3.609375 L 20.941406 -1.351562 L 19.695312 -3.554688 C 19.636719 -3.523438 19.601562 -3.480469 19.578125 -3.429688 L 21.929688 -2.488281 L 19.550781 -3.351562 L 24.625 -17.351562 L 33.628906 -17.351562 L 33.628906 -14.820312 L 31.25 -15.683594 L 32.960938 -20.394531 L 35.339844 -19.53125 L 35.339844 -17 L 7.5 -17 L 7.5 -19.53125 L 9.878906 -18.667969 Z M 8.167969 -13.957031 "/></g></g><g style="fill:#000000;fill-opacity:1;"><g transform="translate(112.277122, 161.478095)"><path style="stroke:none" d="M 27.910156 -16.027344 L 25.445312 -9.230469 L 18.421875 -9.230469 C 18.445312 -9.230469 18.492188 -9.234375 18.554688 -9.246094 C 18.703125 -9.277344 18.832031 -9.316406 18.949219 -9.371094 C 18.980469 -9.386719 19 -9.398438 19.011719 -9.402344 L 16.761719 -7.953125 L 15.390625 -10.078125 L 17.769531 -9.214844 L 13.503906 2.53125 L -2.441406 2.53125 L 5.515625 -19.421875 L 18.691406 -19.421875 L 19.109375 -14.808594 L 16.589844 -14.578125 L 15.171875 -16.675781 L 19.234375 -19.421875 L 29.140625 -19.421875 Z M 23.148438 -17.753906 L 25.53125 -16.890625 L 25.53125 -14.359375 L 20.011719 -14.359375 L 20.011719 -16.890625 L 21.425781 -14.792969 L 14.457031 -10.085938 L 13.859375 -16.660156 L 16.378906 -16.890625 L 16.378906 -14.359375 L 7.289062 -14.359375 L 7.289062 -16.890625 L 9.667969 -16.027344 L 3.550781 0.863281 L 1.171875 0 L 1.171875 -2.53125 L 11.730469 -2.53125 L 11.730469 0 L 9.351562 -0.863281 L 13.300781 -11.746094 L 16.328125 -13.695312 C 16.75 -13.960938 17.160156 -14.132812 17.5625 -14.210938 C 17.828125 -14.265625 18.113281 -14.292969 18.421875 -14.292969 L 23.671875 -14.292969 L 23.671875 -11.761719 L 21.289062 -12.621094 Z M 23.148438 -17.753906 "/></g></g><g style="fill:#000000;fill-opacity:1;"><g transform="translate(132.197107, 161.478095)"><path style="stroke:none" d="M 27.960938 -19.421875 C 28.792969 -19.421875 29.550781 -19.257812 30.222656 -18.933594 C 30.976562 -18.574219 31.585938 -18.035156 32.046875 -17.324219 C 32.503906 -16.625 32.75 -15.855469 32.789062 -15.015625 C 32.820312 -14.285156 32.691406 -13.53125 32.398438 -12.753906 L 26.855469 2.53125 L 12.621094 2.53125 L 12.894531 -2.273438 L 15.421875 -2.128906 L 16.691406 0.0585938 L 12.441406 2.53125 L 6.179688 2.53125 C 5.101562 2.53125 4.167969 2.210938 3.382812 1.574219 L 1.050781 -0.296875 L 0.988281 -0.355469 C 0.285156 -1 -0.125 -1.8125 -0.234375 -2.789062 C -0.320312 -3.535156 -0.222656 -4.289062 0.0546875 -5.046875 L 1.445312 -8.882812 L 1.460938 -8.921875 C 1.929688 -10.09375 2.734375 -10.984375 3.878906 -11.59375 L 6.03125 -12.714844 L 7.199219 -10.46875 L 5.859375 -12.617188 C 6.253906 -12.863281 6.671875 -13.039062 7.117188 -13.144531 C 7.476562 -13.230469 7.835938 -13.269531 8.191406 -13.269531 L 18.421875 -13.269531 L 18.421875 -10.738281 L 16.046875 -11.621094 L 16.347656 -12.429688 L 18.71875 -11.550781 L 16.320312 -12.351562 C 16.277344 -12.230469 16.261719 -12.085938 16.269531 -11.917969 C 16.285156 -11.628906 16.371094 -11.359375 16.527344 -11.109375 C 16.722656 -10.796875 16.988281 -10.566406 17.320312 -10.414062 C 17.519531 -10.324219 17.707031 -10.277344 17.878906 -10.277344 L 3.355469 -10.277344 L 6.652344 -19.421875 Z M 27.960938 -14.359375 L 8.429688 -14.359375 L 8.429688 -16.890625 L 10.8125 -16.03125 L 9.339844 -11.953125 L 6.960938 -12.808594 L 6.960938 -15.339844 L 17.878906 -15.339844 C 18.433594 -15.339844 18.945312 -15.234375 19.40625 -15.027344 C 20.003906 -14.753906 20.476562 -14.34375 20.820312 -13.792969 C 21.128906 -13.300781 21.296875 -12.757812 21.328125 -12.171875 C 21.351562 -11.703125 21.28125 -11.230469 21.121094 -10.75 L 21.109375 -10.710938 L 20.183594 -8.207031 L 8.191406 -8.207031 C 8.226562 -8.207031 8.253906 -8.210938 8.273438 -8.214844 C 8.375 -8.238281 8.464844 -8.277344 8.542969 -8.324219 L 8.457031 -8.269531 L 6.261719 -7.125 C 6.203125 -7.097656 6.171875 -7.066406 6.160156 -7.039062 L 3.808594 -7.980469 L 6.191406 -7.117188 L 4.804688 -3.292969 C 4.800781 -3.28125 4.796875 -3.269531 4.792969 -3.261719 L 4.796875 -3.269531 C 4.800781 -3.296875 4.800781 -3.328125 4.792969 -3.363281 C 4.761719 -3.640625 4.636719 -3.878906 4.410156 -4.085938 L 2.699219 -2.21875 L 4.285156 -4.195312 L 6.578125 -2.355469 C 6.492188 -2.421875 6.402344 -2.472656 6.300781 -2.503906 C 6.25 -2.523438 6.207031 -2.53125 6.179688 -2.53125 L 11.761719 -2.53125 L 11.761719 0 L 10.488281 -2.1875 L 18.210938 -6.683594 L 17.828125 0.140625 L 15.300781 0 L 15.300781 -2.53125 L 25.078125 -2.53125 L 25.078125 0 L 22.699219 -0.863281 L 27.660156 -14.542969 C 27.710938 -14.667969 27.730469 -14.75 27.730469 -14.78125 C 27.734375 -14.707031 27.757812 -14.632812 27.804688 -14.5625 C 27.855469 -14.484375 27.929688 -14.417969 28.027344 -14.371094 C 28.054688 -14.359375 28.074219 -14.351562 28.085938 -14.351562 C 28.058594 -14.355469 28.015625 -14.359375 27.960938 -14.359375 Z M 15.660156 -4.539062 C 15.703125 -4.660156 15.71875 -4.804688 15.710938 -4.972656 C 15.695312 -5.257812 15.609375 -5.53125 15.453125 -5.78125 C 15.261719 -6.082031 15.007812 -6.308594 14.6875 -6.460938 C 14.472656 -6.5625 14.265625 -6.609375 14.070312 -6.609375 L 15.988281 -6.609375 L 15.988281 -4.078125 L 13.609375 -4.945312 L 14.691406 -7.914062 L 17.070312 -7.050781 L 17.070312 -4.519531 L 13.890625 -4.519531 L 13.890625 -7.050781 L 16.265625 -6.175781 L 15.636719 -4.464844 L 13.261719 -5.339844 Z M 10.871094 -6.179688 L 12.125 -9.582031 L 20.683594 -9.582031 L 17.761719 -1.546875 L 14.070312 -1.546875 C 13.511719 -1.546875 13 -1.660156 12.53125 -1.878906 C 11.953125 -2.152344 11.496094 -2.558594 11.160156 -3.097656 C 10.851562 -3.589844 10.683594 -4.128906 10.652344 -4.71875 C 10.628906 -5.183594 10.699219 -5.660156 10.859375 -6.140625 Z M 10.871094 -6.179688 "/></g></g><g style="fill:#000000;fill-opacity:1;"><g transform="translate(158.32708, 161.478095)"><path style="stroke:none" d="M 10.410156 -19.421875 L 32.402344 -19.421875 L 29.109375 -10.277344 L 18.539062 -10.277344 C 18.671875 -10.277344 18.792969 -10.296875 18.902344 -10.335938 C 18.929688 -10.347656 18.953125 -10.355469 18.972656 -10.367188 L 18.964844 -10.363281 C 19.082031 -10.441406 19.171875 -10.570312 19.230469 -10.75 L 19.21875 -10.714844 L 16.925781 -4.46875 L 14.550781 -5.339844 L 16.953125 -4.539062 C 17 -4.6875 17.015625 -4.859375 17 -5.054688 C 16.976562 -5.363281 16.871094 -5.648438 16.691406 -5.902344 C 16.527344 -6.132812 16.3125 -6.3125 16.050781 -6.441406 C 15.820312 -6.554688 15.589844 -6.609375 15.359375 -6.609375 L 27.753906 -6.609375 L 24.457031 2.53125 L 7.140625 2.53125 C 6.683594 2.53125 6.238281 2.46875 5.800781 2.34375 C 5.167969 2.164062 4.628906 1.847656 4.179688 1.398438 L 1.429688 -1.230469 C 0.777344 -1.882812 0.375 -2.632812 0.230469 -3.472656 C 0.0976562 -4.234375 0.179688 -5.019531 0.476562 -5.824219 L 3.621094 -14.511719 C 3.964844 -15.449219 4.492188 -16.292969 5.207031 -17.039062 C 5.886719 -17.746094 6.664062 -18.3125 7.539062 -18.734375 C 8.488281 -19.191406 9.445312 -19.421875 10.410156 -19.421875 Z M 10.410156 -14.359375 C 10.214844 -14.359375 9.992188 -14.296875 9.742188 -14.175781 C 9.414062 -14.019531 9.121094 -13.804688 8.863281 -13.53125 C 8.636719 -13.296875 8.476562 -13.050781 8.378906 -12.789062 L 5.226562 -4.074219 C 5.222656 -4.066406 5.21875 -4.058594 5.21875 -4.054688 C 5.222656 -4.066406 5.222656 -4.078125 5.226562 -4.097656 C 5.234375 -4.171875 5.230469 -4.253906 5.214844 -4.34375 C 5.179688 -4.554688 5.082031 -4.734375 4.929688 -4.890625 L 7.761719 -2.179688 C 7.589844 -2.347656 7.402344 -2.464844 7.191406 -2.523438 C 7.171875 -2.527344 7.15625 -2.53125 7.140625 -2.53125 L 22.679688 -2.53125 L 22.679688 0 L 20.296875 -0.859375 L 21.769531 -4.9375 L 24.148438 -4.078125 L 24.148438 -1.546875 L 15.359375 -1.546875 C 14.808594 -1.546875 14.296875 -1.664062 13.824219 -1.898438 C 13.3125 -2.144531 12.894531 -2.507812 12.558594 -2.976562 C 12.207031 -3.472656 12.007812 -4.027344 11.957031 -4.636719 C 11.914062 -5.128906 11.980469 -5.632812 12.148438 -6.140625 L 12.160156 -6.175781 L 14.453125 -12.421875 L 16.828125 -11.550781 L 14.429688 -12.351562 C 14.726562 -13.25 15.285156 -13.976562 16.101562 -14.539062 C 16.886719 -15.074219 17.695312 -15.339844 18.539062 -15.339844 L 27.328125 -15.339844 L 27.328125 -12.808594 L 24.949219 -13.667969 L 26.417969 -17.746094 L 28.800781 -16.890625 L 28.800781 -14.359375 Z M 10.410156 -14.359375 "/></g></g><g style="fill:#000000;fill-opacity:1;"><g transform="translate(181.847056, 161.478095)"><path style="stroke:none" d="M 21.820312 -20.765625 L 17.347656 -8.464844 L 14.96875 -9.328125 L 13.261719 -11.195312 L 22.234375 -19.421875 L 37.472656 -19.421875 L 36.125 -15.382812 L 26.648438 -6.628906 L 24.929688 -8.488281 L 27.3125 -9.34375 L 30.578125 -0.207031 L 29.664062 2.53125 L 15.328125 2.53125 L 11.960938 -6.726562 L 14.339844 -7.589844 L 16.71875 -6.726562 L 13.351562 2.53125 L -2.5625 2.53125 L 7.136719 -24.160156 L 23.054688 -24.160156 Z M 17.0625 -22.496094 L 19.441406 -21.628906 L 19.441406 -19.097656 L 8.910156 -19.097656 L 8.910156 -21.628906 L 11.289062 -20.765625 L 3.429688 0.863281 L 1.050781 0 L 1.050781 -2.53125 L 11.578125 -2.53125 L 11.578125 0 L 9.199219 -0.863281 L 14.339844 -14.996094 L 19.480469 -0.863281 L 17.101562 0 L 17.101562 -2.53125 L 27.839844 -2.53125 L 27.839844 0 L 25.4375 -0.800781 L 25.5 -0.980469 L 27.898438 -0.179688 L 25.515625 0.671875 L 21.984375 -9.214844 L 32.210938 -18.660156 L 33.929688 -16.800781 L 31.527344 -17.601562 L 31.558594 -17.691406 L 33.960938 -16.890625 L 33.960938 -14.359375 L 23.21875 -14.359375 L 23.21875 -16.890625 L 24.929688 -15.023438 L 16.679688 -7.464844 L 12.589844 -10.195312 Z M 17.0625 -22.496094 "/></g></g><g style="fill:#000000;fill-opacity:1;"><g transform="translate(209.897026, 161.478095)"><path style="stroke:none" d="M 3.410156 -15.683594 L 5.726562 -22.0625 L 38.953125 -22.0625 L 35.402344 -12.289062 L 26.398438 -12.289062 L 26.398438 -14.820312 L 28.78125 -13.957031 L 24.296875 -1.589844 L 24.28125 -1.550781 C 23.859375 -0.5 23.160156 0.300781 22.183594 0.855469 L 22.136719 0.882812 L 19.894531 2.019531 L 18.75 -0.238281 L 20.078125 1.914062 C 19.410156 2.324219 18.675781 2.53125 17.878906 2.53125 L 4.039062 2.53125 L 10.640625 -15.683594 L 13.019531 -14.820312 L 13.019531 -12.289062 L 2.179688 -12.289062 Z M 8.167969 -13.957031 L 5.789062 -14.820312 L 5.789062 -17.351562 L 16.628906 -17.351562 L 10.03125 0.863281 L 7.648438 0 L 7.648438 -2.53125 L 17.878906 -2.53125 C 17.722656 -2.53125 17.570312 -2.484375 17.421875 -2.394531 L 17.511719 -2.449219 L 19.796875 -3.609375 L 20.941406 -1.351562 L 19.695312 -3.554688 C 19.636719 -3.523438 19.601562 -3.480469 19.578125 -3.429688 L 21.929688 -2.488281 L 19.550781 -3.351562 L 24.625 -17.351562 L 33.628906 -17.351562 L 33.628906 -14.820312 L 31.25 -15.683594 L 32.960938 -20.394531 L 35.339844 -19.53125 L 35.339844 -17 L 7.5 -17 L 7.5 -19.53125 L 9.878906 -18.667969 Z M 8.167969 -13.957031 "/></g></g><g style="fill:#000000;fill-opacity:1;"><g transform="translate(238.576994, 161.478095)"><path style="stroke:none" d="M 25.800781 2.53125 L 11.597656 2.53125 L 17.03125 -12.414062 L 19.410156 -11.550781 L 17.007812 -12.351562 C 16.96875 -12.230469 16.953125 -12.085938 16.960938 -11.917969 C 16.976562 -11.628906 17.0625 -11.359375 17.21875 -11.109375 C 17.40625 -10.808594 17.660156 -10.582031 17.984375 -10.429688 C 18.195312 -10.328125 18.402344 -10.277344 18.601562 -10.277344 L 16.230469 -10.277344 L 16.230469 -12.808594 L 18.609375 -11.945312 L 13.355469 2.53125 L -2.5625 2.53125 L 7.136719 -24.160156 L 23.066406 -24.160156 L 19.625 -14.789062 L 17.25 -15.660156 L 15.96875 -17.84375 L 18.664062 -19.421875 L 27.839844 -19.421875 C 28.820312 -19.421875 29.683594 -19.273438 30.425781 -18.980469 C 31.371094 -18.605469 32.105469 -18.015625 32.625 -17.207031 C 33.527344 -15.804688 33.59375 -14.050781 32.828125 -11.945312 L 27.574219 2.53125 Z M 25.800781 -2.53125 L 25.800781 0 L 23.421875 -0.863281 L 28.070312 -13.675781 C 28.214844 -14.066406 28.285156 -14.375 28.289062 -14.59375 C 28.289062 -14.617188 28.289062 -14.636719 28.289062 -14.648438 C 28.289062 -14.648438 28.289062 -14.640625 28.292969 -14.632812 C 28.304688 -14.582031 28.328125 -14.527344 28.367188 -14.472656 C 28.40625 -14.40625 28.453125 -14.355469 28.511719 -14.308594 C 28.53125 -14.296875 28.546875 -14.285156 28.5625 -14.273438 C 28.417969 -14.332031 28.179688 -14.359375 27.839844 -14.359375 L 19.351562 -14.359375 L 19.351562 -16.890625 L 20.628906 -14.707031 L 12.445312 -9.914062 L 17.0625 -22.5 L 19.441406 -21.628906 L 19.441406 -19.097656 L 8.910156 -19.097656 L 8.910156 -21.628906 L 11.289062 -20.765625 L 3.429688 0.863281 L 1.050781 0 L 1.050781 -2.53125 L 11.578125 -2.53125 L 11.578125 0 L 9.199219 -0.863281 L 14.457031 -15.339844 L 18.601562 -15.339844 C 19.15625 -15.339844 19.671875 -15.230469 20.140625 -15.011719 C 20.714844 -14.738281 21.171875 -14.332031 21.511719 -13.792969 C 21.820312 -13.300781 21.988281 -12.757812 22.015625 -12.171875 C 22.039062 -11.703125 21.972656 -11.230469 21.8125 -10.75 L 21.800781 -10.71875 L 17.589844 0.863281 L 15.210938 0 L 15.210938 -2.53125 Z M 25.800781 -2.53125 "/></g></g><g style="fill:#000000;fill-opacity:1;"><g transform="translate(265.426972, 161.478095)"><path style="stroke:none" d="M 1.390625 -1.269531 C 0.761719 -1.898438 0.375 -2.632812 0.230469 -3.472656 C 0.0976562 -4.234375 0.179688 -5.019531 0.476562 -5.824219 L 3.019531 -12.835938 C 3.832031 -15.101562 5.226562 -16.789062 7.210938 -17.898438 C 9.023438 -18.914062 11.121094 -19.421875 13.5 -19.421875 L 24.839844 -19.421875 C 27.46875 -19.421875 29.453125 -18.792969 30.789062 -17.535156 C 31.675781 -16.699219 32.179688 -15.660156 32.304688 -14.414062 C 32.40625 -13.414062 32.242188 -12.316406 31.8125 -11.117188 L 30.992188 -8.902344 C 30.507812 -7.507812 29.542969 -6.429688 28.105469 -5.65625 L 28.078125 -5.644531 L 24.417969 -3.800781 L 23.28125 -6.058594 L 24.640625 -3.925781 C 24.207031 -3.652344 23.746094 -3.445312 23.257812 -3.308594 C 22.785156 -3.175781 22.320312 -3.109375 21.871094 -3.109375 L 13.988281 -3.109375 L 11.90625 -6.714844 L 14.101562 -7.980469 L 16.480469 -7.113281 L 15.519531 -4.476562 L 13.140625 -5.339844 L 15.542969 -4.539062 C 15.585938 -4.675781 15.601562 -4.832031 15.589844 -5.011719 C 15.570312 -5.3125 15.476562 -5.589844 15.304688 -5.84375 C 15.128906 -6.109375 14.894531 -6.3125 14.601562 -6.453125 C 14.382812 -6.558594 14.164062 -6.609375 13.949219 -6.609375 L 29.402344 -6.609375 L 26.109375 2.53125 L 7.140625 2.53125 C 6.683594 2.53125 6.238281 2.46875 5.800781 2.34375 C 5.167969 2.164062 4.628906 1.847656 4.179688 1.398438 L 1.429688 -1.230469 Z M 4.929688 -4.890625 L 7.761719 -2.179688 C 7.589844 -2.347656 7.402344 -2.464844 7.191406 -2.523438 C 7.171875 -2.527344 7.15625 -2.53125 7.140625 -2.53125 L 24.328125 -2.53125 L 24.328125 0 L 21.949219 -0.859375 L 23.417969 -4.9375 L 25.800781 -4.078125 L 25.800781 -1.546875 L 13.949219 -1.546875 C 13.394531 -1.546875 12.882812 -1.660156 12.414062 -1.886719 C 11.871094 -2.148438 11.429688 -2.53125 11.09375 -3.035156 C 10.765625 -3.53125 10.578125 -4.078125 10.539062 -4.675781 C 10.507812 -5.15625 10.574219 -5.644531 10.738281 -6.140625 L 10.75 -6.171875 L 13.578125 -13.949219 L 17.640625 -6.90625 L 15.449219 -5.640625 L 15.449219 -8.171875 L 21.871094 -8.171875 C 21.855469 -8.171875 21.84375 -8.171875 21.839844 -8.171875 C 21.851562 -8.171875 21.871094 -8.175781 21.890625 -8.183594 C 21.902344 -8.183594 21.910156 -8.191406 21.921875 -8.195312 L 22.027344 -8.261719 L 25.769531 -10.148438 L 26.910156 -7.890625 L 25.714844 -10.121094 C 25.996094 -10.273438 26.171875 -10.449219 26.246094 -10.65625 L 27.046875 -12.820312 C 27.21875 -13.304688 27.292969 -13.664062 27.269531 -13.90625 C 27.265625 -13.921875 27.265625 -13.933594 27.261719 -13.941406 C 27.265625 -13.933594 27.265625 -13.925781 27.273438 -13.914062 C 27.285156 -13.886719 27.304688 -13.863281 27.320312 -13.847656 C 27.195312 -13.964844 26.976562 -14.066406 26.671875 -14.15625 C 26.195312 -14.289062 25.585938 -14.359375 24.839844 -14.359375 L 13.5 -14.359375 C 12 -14.359375 10.726562 -14.066406 9.679688 -13.480469 C 8.804688 -12.988281 8.167969 -12.199219 7.777344 -11.105469 L 5.226562 -4.074219 C 5.222656 -4.066406 5.21875 -4.058594 5.21875 -4.054688 C 5.222656 -4.066406 5.222656 -4.078125 5.226562 -4.097656 C 5.234375 -4.171875 5.230469 -4.253906 5.214844 -4.34375 C 5.179688 -4.554688 5.097656 -4.722656 4.96875 -4.851562 Z M 17.792969 -10.667969 L 17.101562 -8.808594 L 14.730469 -9.691406 L 14.730469 -12.222656 L 17.96875 -12.222656 C 17.832031 -12.222656 17.707031 -12.199219 17.589844 -12.15625 C 17.542969 -12.136719 17.511719 -12.121094 17.496094 -12.113281 C 17.457031 -12.082031 17.417969 -12.019531 17.378906 -11.925781 L 17.589844 -12.46875 L 19.949219 -11.550781 L 17.546875 -12.351562 C 17.5 -12.203125 17.484375 -12.03125 17.5 -11.835938 C 17.523438 -11.527344 17.628906 -11.242188 17.808594 -10.988281 C 17.980469 -10.746094 18.203125 -10.558594 18.476562 -10.429688 C 18.691406 -10.328125 18.902344 -10.277344 19.109375 -10.277344 L 17.160156 -10.277344 C 17.335938 -10.277344 17.472656 -10.3125 17.570312 -10.382812 C 17.683594 -10.460938 17.765625 -10.585938 17.820312 -10.75 L 17.808594 -10.710938 Z M 13.046875 -12.429688 L 15.421875 -11.550781 L 13.019531 -12.351562 C 13.3125 -13.234375 13.859375 -13.957031 14.648438 -14.519531 C 15.429688 -15.066406 16.265625 -15.339844 17.160156 -15.339844 L 19.109375 -15.339844 C 19.65625 -15.339844 20.164062 -15.230469 20.632812 -15.011719 C 21.164062 -14.761719 21.597656 -14.394531 21.941406 -13.914062 C 22.292969 -13.417969 22.492188 -12.863281 22.542969 -12.253906 C 22.585938 -11.761719 22.519531 -11.257812 22.351562 -10.75 L 22.332031 -10.691406 L 22.097656 -10.09375 C 21.78125 -9.28125 21.253906 -8.597656 20.515625 -8.046875 C 19.714844 -7.457031 18.867188 -7.160156 17.96875 -7.160156 L 11.089844 -7.160156 Z M 13.046875 -12.429688 "/></g></g><g style="fill:#000000;fill-opacity:1;"><g transform="translate(291.136935, 161.478095)"><path style="stroke:none" d="M 6.179688 2.53125 C 4.921875 2.53125 3.921875 2.128906 3.179688 1.328125 L 5.039062 -0.390625 L 3.492188 1.613281 L 0.929688 -0.363281 L 0.769531 -0.546875 C 0.207031 -1.1875 -0.128906 -1.929688 -0.230469 -2.773438 C -0.320312 -3.488281 -0.230469 -4.234375 0.0390625 -5.007812 L 2.902344 -12.839844 C 3.710938 -15.101562 5.105469 -16.789062 7.089844 -17.898438 C 8.902344 -18.914062 11 -19.421875 13.378906 -19.421875 L 25.769531 -19.421875 C 26.324219 -19.421875 26.835938 -19.335938 27.308594 -19.167969 C 27.890625 -18.957031 28.386719 -18.632812 28.792969 -18.191406 L 26.941406 -16.46875 L 28.496094 -18.464844 L 30.96875 -16.539062 L 31.105469 -16.390625 C 31.699219 -15.75 32.0625 -15.019531 32.203125 -14.199219 C 32.332031 -13.433594 32.25 -12.648438 31.957031 -11.84375 L 29.109375 -4.050781 C 28.269531 -1.785156 26.871094 -0.0976562 24.914062 1.003906 C 23.105469 2.023438 21.003906 2.53125 18.601562 2.53125 Z M 6.179688 -2.53125 L 18.601562 -2.53125 C 20.117188 -2.53125 21.394531 -2.824219 22.425781 -3.40625 C 23.308594 -3.902344 23.949219 -4.695312 24.351562 -5.789062 L 27.203125 -13.59375 C 27.207031 -13.605469 27.210938 -13.609375 27.210938 -13.613281 C 27.207031 -13.601562 27.207031 -13.589844 27.203125 -13.574219 C 27.195312 -13.507812 27.199219 -13.433594 27.210938 -13.355469 C 27.242188 -13.183594 27.300781 -13.050781 27.394531 -12.949219 L 29.25 -14.671875 L 27.695312 -12.671875 L 25.222656 -14.597656 L 25.085938 -14.746094 C 25.234375 -14.585938 25.40625 -14.472656 25.597656 -14.402344 C 25.679688 -14.375 25.734375 -14.359375 25.769531 -14.359375 L 13.378906 -14.359375 C 11.878906 -14.359375 10.605469 -14.066406 9.5625 -13.480469 C 8.683594 -12.988281 8.050781 -12.195312 7.65625 -11.101562 L 4.820312 -3.332031 C 4.804688 -3.292969 4.796875 -3.265625 4.796875 -3.253906 C 4.800781 -3.289062 4.800781 -3.335938 4.792969 -3.390625 C 4.769531 -3.585938 4.695312 -3.75 4.570312 -3.890625 L 2.671875 -2.21875 L 4.21875 -4.222656 L 6.753906 -2.261719 L 6.898438 -2.105469 C 6.730469 -2.289062 6.539062 -2.417969 6.324219 -2.492188 C 6.269531 -2.511719 6.222656 -2.523438 6.179688 -2.53125 Z M 15.363281 -4.539062 C 15.410156 -4.6875 15.425781 -4.859375 15.410156 -5.054688 C 15.386719 -5.363281 15.28125 -5.648438 15.101562 -5.902344 C 14.921875 -6.15625 14.691406 -6.347656 14.40625 -6.476562 C 14.207031 -6.566406 14.015625 -6.609375 13.828125 -6.609375 L 15 -6.609375 C 14.882812 -6.609375 14.769531 -6.59375 14.667969 -6.558594 C 14.617188 -6.539062 14.582031 -6.523438 14.558594 -6.507812 C 14.449219 -6.429688 14.363281 -6.304688 14.308594 -6.140625 L 14.320312 -6.175781 L 16.613281 -12.421875 L 18.988281 -11.550781 L 16.589844 -12.351562 C 16.539062 -12.203125 16.523438 -12.03125 16.539062 -11.835938 C 16.566406 -11.527344 16.667969 -11.242188 16.847656 -10.988281 C 17.027344 -10.734375 17.261719 -10.542969 17.542969 -10.414062 C 17.742188 -10.324219 17.9375 -10.277344 18.121094 -10.277344 L 16.949219 -10.277344 C 17.082031 -10.277344 17.203125 -10.296875 17.3125 -10.335938 C 17.339844 -10.347656 17.363281 -10.355469 17.382812 -10.367188 L 17.375 -10.363281 C 17.492188 -10.441406 17.582031 -10.570312 17.640625 -10.75 L 17.628906 -10.714844 L 15.335938 -4.46875 L 12.960938 -5.339844 Z M 10.570312 -6.175781 L 12.863281 -12.421875 L 15.238281 -11.550781 L 12.839844 -12.351562 C 13.136719 -13.25 13.695312 -13.976562 14.511719 -14.539062 C 15.292969 -15.074219 16.105469 -15.339844 16.949219 -15.339844 L 18.121094 -15.339844 C 18.664062 -15.339844 19.167969 -15.234375 19.632812 -15.027344 C 20.183594 -14.777344 20.632812 -14.40625 20.980469 -13.914062 C 21.332031 -13.417969 21.53125 -12.863281 21.582031 -12.253906 C 21.625 -11.761719 21.5625 -11.257812 21.390625 -10.75 L 21.378906 -10.714844 L 19.085938 -4.46875 L 16.710938 -5.339844 L 19.113281 -4.539062 C 18.816406 -3.652344 18.273438 -2.929688 17.480469 -2.371094 C 16.703125 -1.824219 15.875 -1.546875 15 -1.546875 L 13.828125 -1.546875 C 13.285156 -1.546875 12.78125 -1.652344 12.316406 -1.863281 C 11.769531 -2.113281 11.320312 -2.484375 10.96875 -2.976562 C 10.617188 -3.472656 10.417969 -4.027344 10.367188 -4.636719 C 10.324219 -5.128906 10.390625 -5.632812 10.558594 -6.140625 Z M 10.570312 -6.175781 "/></g></g><g style="fill:#000000;fill-opacity:1;"><g transform="translate(316.996918, 161.478095)"><path style="stroke:none" d="M 27.910156 -16.027344 L 25.445312 -9.230469 L 18.421875 -9.230469 C 18.445312 -9.230469 18.492188 -9.234375 18.554688 -9.246094 C 18.703125 -9.277344 18.832031 -9.316406 18.949219 -9.371094 C 18.980469 -9.386719 19 -9.398438 19.011719 -9.402344 L 16.761719 -7.953125 L 15.390625 -10.078125 L 17.769531 -9.214844 L 13.503906 2.53125 L -2.441406 2.53125 L 5.515625 -19.421875 L 18.691406 -19.421875 L 19.109375 -14.808594 L 16.589844 -14.578125 L 15.171875 -16.675781 L 19.234375 -19.421875 L 29.140625 -19.421875 Z M 23.148438 -17.753906 L 25.53125 -16.890625 L 25.53125 -14.359375 L 20.011719 -14.359375 L 20.011719 -16.890625 L 21.425781 -14.792969 L 14.457031 -10.085938 L 13.859375 -16.660156 L 16.378906 -16.890625 L 16.378906 -14.359375 L 7.289062 -14.359375 L 7.289062 -16.890625 L 9.667969 -16.027344 L 3.550781 0.863281 L 1.171875 0 L 1.171875 -2.53125 L 11.730469 -2.53125 L 11.730469 0 L 9.351562 -0.863281 L 13.300781 -11.746094 L 16.328125 -13.695312 C 16.75 -13.960938 17.160156 -14.132812 17.5625 -14.210938 C 17.828125 -14.265625 18.113281 -14.292969 18.421875 -14.292969 L 23.671875 -14.292969 L 23.671875 -11.761719 L 21.289062 -12.621094 Z M 23.148438 -17.753906 "/></g></g><g style="fill:#000000;fill-opacity:1;"><g transform="translate(336.916916, 161.478095)"><path style="stroke:none" d="M 20.640625 7.152344 L 6.160156 7.152344 L 10.539062 -1.179688 L 12.78125 0 L 12.78125 2.53125 L 8.011719 2.53125 C 7.460938 2.53125 6.949219 2.445312 6.476562 2.269531 C 5.90625 2.0625 5.417969 1.738281 5.015625 1.300781 L 6.871094 -0.421875 L 5.34375 1.597656 L 2.671875 -0.421875 L 2.5 -0.617188 C 1.96875 -1.226562 1.648438 -1.941406 1.535156 -2.765625 C 1.445312 -3.421875 1.496094 -4.125 1.691406 -4.871094 L 4.140625 -4.230469 L 1.652344 -4.703125 L 4.445312 -19.421875 L 19.933594 -19.421875 L 16.816406 -4.925781 L 14.339844 -5.460938 L 16.828125 -4.992188 C 16.796875 -4.828125 16.78125 -4.6875 16.78125 -4.574219 C 16.78125 -4.847656 16.726562 -5.113281 16.617188 -5.378906 C 16.46875 -5.726562 16.25 -6.019531 15.953125 -6.253906 C 15.71875 -6.4375 15.460938 -6.570312 15.183594 -6.640625 C 15.035156 -6.679688 14.894531 -6.703125 14.761719 -6.703125 L 14.910156 -6.703125 L 14.910156 -4.171875 L 12.652344 -5.316406 L 19.804688 -19.421875 L 35.753906 -19.421875 L 22.191406 7.152344 Z M 20.640625 2.089844 L 20.640625 4.621094 L 18.386719 3.46875 L 29.367188 -18.039062 L 31.621094 -16.890625 L 31.621094 -14.359375 L 21.359375 -14.359375 L 21.359375 -16.890625 L 23.617188 -15.746094 L 16.464844 -1.640625 L 14.761719 -1.640625 C 14 -1.640625 13.347656 -1.855469 12.804688 -2.289062 C 12.421875 -2.59375 12.136719 -2.96875 11.949219 -3.417969 C 11.796875 -3.78125 11.71875 -4.167969 11.71875 -4.574219 C 11.71875 -5 11.761719 -5.453125 11.851562 -5.925781 L 11.859375 -5.960938 L 14.324219 -17.421875 L 16.800781 -16.890625 L 16.800781 -14.359375 L 6.539062 -14.359375 L 6.539062 -16.890625 L 9.027344 -16.417969 L 6.609375 -3.671875 L 6.589844 -3.589844 C 6.570312 -3.515625 6.558594 -3.460938 6.554688 -3.414062 L 6.554688 -3.410156 C 6.554688 -3.425781 6.550781 -3.441406 6.550781 -3.460938 C 6.527344 -3.632812 6.449219 -3.792969 6.320312 -3.941406 L 4.410156 -2.28125 L 5.9375 -4.300781 L 8.574219 -2.304688 L 8.726562 -2.140625 C 8.582031 -2.296875 8.414062 -2.410156 8.226562 -2.480469 C 8.132812 -2.515625 8.0625 -2.53125 8.011719 -2.53125 L 16.972656 -2.53125 L 12.589844 5.796875 L 10.351562 4.621094 L 10.351562 2.089844 Z M 20.640625 2.089844 "/></g></g><g style="fill:#0debeb;fill-opacity:1;"><g transform="translate(83.597153, 161.478095)"><path style="stroke:none" d="M 5.796875 -14.8125 L 7.5 -19.53125 L 35.34375 -19.53125 L 33.625 -14.8125 L 26.40625 -14.8125 L 21.9375 -2.484375 C 21.726562 -1.984375 21.394531 -1.601562 20.9375 -1.34375 L 18.75 -0.234375 C 18.488281 -0.078125 18.195312 0 17.875 0 L 7.65625 0 L 13.015625 -14.8125 Z M 5.796875 -14.8125 "/></g></g><g style="fill:#0debeb;fill-opacity:1;"><g transform="translate(112.277122, 161.478095)"><path style="stroke:none" d="M 25.53125 -16.890625 L 23.671875 -11.765625 L 18.421875 -11.765625 C 18.273438 -11.765625 18.148438 -11.753906 18.046875 -11.734375 C 17.953125 -11.710938 17.828125 -11.648438 17.671875 -11.546875 L 15.390625 -10.078125 L 11.734375 0 L 1.171875 0 L 7.296875 -16.890625 L 16.375 -16.890625 L 16.59375 -14.578125 L 20.015625 -16.890625 Z M 25.53125 -16.890625 "/></g></g><g style="fill:#0debeb;fill-opacity:1;"><g transform="translate(132.197107, 161.478095)"><path style="stroke:none" d="M 27.953125 -16.890625 C 28.859375 -16.890625 29.515625 -16.570312 29.921875 -15.9375 C 30.335938 -15.3125 30.375 -14.550781 30.03125 -13.65625 L 25.078125 0 L 15.296875 0 L 15.421875 -2.125 L 11.765625 0 L 6.1875 0 C 5.695312 0 5.296875 -0.128906 4.984375 -0.390625 L 2.703125 -2.21875 C 2.460938 -2.4375 2.320312 -2.71875 2.28125 -3.0625 C 2.238281 -3.414062 2.289062 -3.785156 2.4375 -4.171875 L 3.8125 -7.984375 C 4.050781 -8.578125 4.46875 -9.035156 5.0625 -9.359375 L 7.203125 -10.46875 C 7.359375 -10.570312 7.519531 -10.640625 7.6875 -10.671875 C 7.863281 -10.710938 8.03125 -10.734375 8.1875 -10.734375 L 18.421875 -10.734375 L 18.71875 -11.546875 C 18.84375 -11.910156 18.828125 -12.210938 18.671875 -12.453125 C 18.523438 -12.691406 18.257812 -12.8125 17.875 -12.8125 L 6.953125 -12.8125 L 8.4375 -16.890625 Z M 13.265625 -5.34375 C 13.140625 -4.976562 13.148438 -4.675781 13.296875 -4.4375 C 13.453125 -4.195312 13.707031 -4.078125 14.0625 -4.078125 L 15.984375 -4.078125 L 17.0625 -7.046875 L 13.890625 -7.046875 Z M 13.265625 -5.34375 "/></g></g><g style="fill:#0debeb;fill-opacity:1;"><g transform="translate(158.32708, 161.478095)"><path style="stroke:none" d="M 10.40625 -16.890625 L 28.796875 -16.890625 L 27.328125 -12.8125 L 18.546875 -12.8125 C 18.222656 -12.8125 17.882812 -12.691406 17.53125 -12.453125 C 17.1875 -12.210938 16.953125 -11.910156 16.828125 -11.546875 L 14.546875 -5.34375 C 14.429688 -4.976562 14.457031 -4.675781 14.625 -4.4375 C 14.789062 -4.195312 15.035156 -4.078125 15.359375 -4.078125 L 24.15625 -4.078125 L 22.6875 0 L 7.140625 0 C 6.921875 0 6.707031 -0.03125 6.5 -0.09375 C 6.289062 -0.15625 6.113281 -0.253906 5.96875 -0.390625 L 3.1875 -3.0625 C 2.6875 -3.5625 2.570312 -4.191406 2.84375 -4.953125 L 6 -13.65625 C 6.21875 -14.25 6.5625 -14.789062 7.03125 -15.28125 C 7.5 -15.769531 8.035156 -16.160156 8.640625 -16.453125 C 9.242188 -16.742188 9.832031 -16.890625 10.40625 -16.890625 Z M 10.40625 -16.890625 "/></g></g><g style="fill:#0debeb;fill-opacity:1;"><g transform="translate(181.847056, 161.478095)"><path style="stroke:none" d="M 19.4375 -21.625 L 14.96875 -9.328125 L 23.21875 -16.890625 L 33.953125 -16.890625 L 33.9375 -16.796875 L 24.9375 -8.484375 L 27.90625 -0.1875 L 27.84375 0 L 17.09375 0 L 14.34375 -7.59375 L 11.578125 0 L 1.046875 0 L 8.90625 -21.625 Z M 19.4375 -21.625 "/></g></g><g style="fill:#0debeb;fill-opacity:1;"><g transform="translate(209.897026, 161.478095)"><path style="stroke:none" d="M 5.796875 -14.8125 L 7.5 -19.53125 L 35.34375 -19.53125 L 33.625 -14.8125 L 26.40625 -14.8125 L 21.9375 -2.484375 C 21.726562 -1.984375 21.394531 -1.601562 20.9375 -1.34375 L 18.75 -0.234375 C 18.488281 -0.078125 18.195312 0 17.875 0 L 7.65625 0 L 13.015625 -14.8125 Z M 5.796875 -14.8125 "/></g></g><g style="fill:#0debeb;fill-opacity:1;"><g transform="translate(238.576994, 161.478095)"><path style="stroke:none" d="M 25.796875 0 L 15.203125 0 L 19.40625 -11.546875 C 19.53125 -11.910156 19.515625 -12.210938 19.359375 -12.453125 C 19.210938 -12.691406 18.957031 -12.8125 18.59375 -12.8125 L 16.234375 -12.8125 L 11.578125 0 L 1.046875 0 L 8.90625 -21.625 L 19.4375 -21.625 L 17.25 -15.65625 L 19.34375 -16.890625 L 27.84375 -16.890625 C 29.15625 -16.890625 30.035156 -16.539062 30.484375 -15.84375 C 30.941406 -15.144531 30.929688 -14.132812 30.453125 -12.8125 Z M 25.796875 0 "/></g></g><g style="fill:#0debeb;fill-opacity:1;"><g transform="translate(265.426972, 161.478095)"><path style="stroke:none" d="M 3.1875 -3.0625 C 2.6875 -3.5625 2.570312 -4.191406 2.84375 -4.953125 L 5.40625 -11.96875 C 6 -13.644531 7.007812 -14.882812 8.4375 -15.6875 C 9.875 -16.488281 11.5625 -16.890625 13.5 -16.890625 L 24.84375 -16.890625 C 26.800781 -16.890625 28.203125 -16.488281 29.046875 -15.6875 C 29.898438 -14.882812 30.03125 -13.644531 29.4375 -11.96875 L 28.625 -9.78125 C 28.34375 -8.976562 27.769531 -8.347656 26.90625 -7.890625 L 23.28125 -6.0625 C 23.0625 -5.914062 22.828125 -5.804688 22.578125 -5.734375 C 22.328125 -5.671875 22.09375 -5.640625 21.875 -5.640625 L 15.453125 -5.640625 L 14.09375 -7.984375 L 13.140625 -5.34375 C 13.015625 -4.976562 13.03125 -4.675781 13.1875 -4.4375 C 13.351562 -4.195312 13.609375 -4.078125 13.953125 -4.078125 L 25.796875 -4.078125 L 24.328125 0 L 7.140625 0 C 6.921875 0 6.707031 -0.03125 6.5 -0.09375 C 6.289062 -0.15625 6.113281 -0.253906 5.96875 -0.390625 Z M 15.421875 -11.546875 L 14.734375 -9.6875 L 17.96875 -9.6875 C 18.3125 -9.6875 18.65625 -9.816406 19 -10.078125 C 19.351562 -10.335938 19.597656 -10.648438 19.734375 -11.015625 L 19.953125 -11.546875 C 20.066406 -11.910156 20.039062 -12.210938 19.875 -12.453125 C 19.707031 -12.691406 19.453125 -12.8125 19.109375 -12.8125 L 17.15625 -12.8125 C 16.800781 -12.8125 16.453125 -12.691406 16.109375 -12.453125 C 15.765625 -12.210938 15.535156 -11.910156 15.421875 -11.546875 Z M 15.421875 -11.546875 "/></g></g><g style="fill:#0debeb;fill-opacity:1;"><g transform="translate(291.136935, 161.478095)"><path style="stroke:none" d="M 6.1875 0 C 5.664062 0 5.285156 -0.128906 5.046875 -0.390625 L 2.671875 -2.21875 C 2.234375 -2.71875 2.15625 -3.367188 2.4375 -4.171875 L 5.28125 -11.96875 C 5.882812 -13.644531 6.898438 -14.882812 8.328125 -15.6875 C 9.753906 -16.488281 11.4375 -16.890625 13.375 -16.890625 L 25.765625 -16.890625 C 26.285156 -16.890625 26.675781 -16.75 26.9375 -16.46875 L 29.25 -14.671875 C 29.75 -14.128906 29.859375 -13.476562 29.578125 -12.71875 L 26.734375 -4.921875 C 26.109375 -3.242188 25.085938 -2.003906 23.671875 -1.203125 C 22.253906 -0.398438 20.5625 0 18.59375 0 Z M 12.953125 -5.34375 C 12.835938 -4.976562 12.863281 -4.675781 13.03125 -4.4375 C 13.207031 -4.195312 13.472656 -4.078125 13.828125 -4.078125 L 15 -4.078125 C 15.34375 -4.078125 15.679688 -4.195312 16.015625 -4.4375 C 16.359375 -4.675781 16.585938 -4.976562 16.703125 -5.34375 L 18.984375 -11.546875 C 19.109375 -11.910156 19.082031 -12.210938 18.90625 -12.453125 C 18.738281 -12.691406 18.476562 -12.8125 18.125 -12.8125 L 16.953125 -12.8125 C 16.628906 -12.8125 16.289062 -12.691406 15.9375 -12.453125 C 15.59375 -12.210938 15.359375 -11.910156 15.234375 -11.546875 Z M 12.953125 -5.34375 "/></g></g><g style="fill:#0debeb;fill-opacity:1;"><g transform="translate(316.996918, 161.478095)"><path style="stroke:none" d="M 25.53125 -16.890625 L 23.671875 -11.765625 L 18.421875 -11.765625 C 18.273438 -11.765625 18.148438 -11.753906 18.046875 -11.734375 C 17.953125 -11.710938 17.828125 -11.648438 17.671875 -11.546875 L 15.390625 -10.078125 L 11.734375 0 L 1.171875 0 L 7.296875 -16.890625 L 16.375 -16.890625 L 16.59375 -14.578125 L 20.015625 -16.890625 Z M 25.53125 -16.890625 "/></g></g><g style="fill:#0debeb;fill-opacity:1;"><g transform="translate(336.916916, 161.478095)"><path style="stroke:none" d="M 20.640625 4.625 L 10.34375 4.625 L 12.78125 0 L 8.015625 0 C 7.515625 0 7.132812 -0.140625 6.875 -0.421875 L 4.40625 -2.28125 C 4.007812 -2.738281 3.921875 -3.390625 4.140625 -4.234375 L 6.546875 -16.890625 L 16.796875 -16.890625 L 14.34375 -5.453125 C 14.28125 -5.140625 14.25 -4.847656 14.25 -4.578125 C 14.25 -4.304688 14.421875 -4.171875 14.765625 -4.171875 L 14.90625 -4.171875 L 21.359375 -16.890625 L 31.625 -16.890625 Z M 20.640625 4.625 "/></g></g><g style="fill:#0debeb;fill-opacity:1;"><g transform="translate(301.129035, 179.194728)"><path style="stroke:none" d="M 0.75 -1.4375 L 2.359375 -1.4375 L 2.0625 0 L 0.453125 0 Z M 0.75 -1.4375 "/></g></g><g style="fill:#0debeb;fill-opacity:1;"><g transform="translate(305.973118, 179.194728)"><path style="stroke:none" d="M 7.109375 -2.15625 C 7.066406 -1.914062 7.003906 -1.695312 6.921875 -1.5 C 6.835938 -1.3125 6.738281 -1.140625 6.625 -0.984375 C 6.519531 -0.828125 6.40625 -0.691406 6.28125 -0.578125 C 6.164062 -0.472656 6.050781 -0.382812 5.9375 -0.3125 C 5.601562 -0.101562 5.242188 0.0234375 4.859375 0.078125 C 4.484375 0.140625 4.128906 0.171875 3.796875 0.171875 C 3.609375 0.171875 3.410156 0.160156 3.203125 0.140625 C 2.992188 0.128906 2.785156 0.0976562 2.578125 0.046875 C 2.378906 0.00390625 2.179688 -0.0546875 1.984375 -0.140625 C 1.785156 -0.222656 1.597656 -0.335938 1.421875 -0.484375 C 1.304688 -0.578125 1.191406 -0.691406 1.078125 -0.828125 C 0.960938 -0.972656 0.859375 -1.132812 0.765625 -1.3125 C 0.679688 -1.488281 0.609375 -1.691406 0.546875 -1.921875 C 0.492188 -2.148438 0.46875 -2.40625 0.46875 -2.6875 C 0.46875 -3.300781 0.578125 -3.835938 0.796875 -4.296875 C 1.023438 -4.765625 1.316406 -5.148438 1.671875 -5.453125 C 1.898438 -5.640625 2.128906 -5.789062 2.359375 -5.90625 C 2.597656 -6.019531 2.832031 -6.101562 3.0625 -6.15625 C 3.289062 -6.21875 3.515625 -6.253906 3.734375 -6.265625 C 3.953125 -6.285156 4.15625 -6.296875 4.34375 -6.296875 C 4.46875 -6.296875 4.625 -6.289062 4.8125 -6.28125 C 5 -6.28125 5.195312 -6.257812 5.40625 -6.21875 C 5.613281 -6.1875 5.816406 -6.132812 6.015625 -6.0625 C 6.222656 -5.988281 6.414062 -5.882812 6.59375 -5.75 C 6.789062 -5.59375 6.96875 -5.378906 7.125 -5.109375 C 7.28125 -4.835938 7.359375 -4.523438 7.359375 -4.171875 L 7.359375 -4.078125 L 5.671875 -4.078125 L 5.671875 -4.140625 C 5.671875 -4.304688 5.628906 -4.445312 5.546875 -4.5625 C 5.472656 -4.6875 5.390625 -4.78125 5.296875 -4.84375 C 5.191406 -4.914062 5.0625 -4.972656 4.90625 -5.015625 C 4.75 -5.054688 4.5625 -5.078125 4.34375 -5.078125 C 4.144531 -5.078125 3.921875 -5.046875 3.671875 -4.984375 C 3.421875 -4.921875 3.179688 -4.789062 2.953125 -4.59375 C 2.742188 -4.40625 2.566406 -4.148438 2.421875 -3.828125 C 2.285156 -3.503906 2.21875 -3.140625 2.21875 -2.734375 C 2.21875 -2.554688 2.242188 -2.359375 2.296875 -2.140625 C 2.347656 -1.921875 2.457031 -1.71875 2.625 -1.53125 C 2.738281 -1.40625 2.890625 -1.289062 3.078125 -1.1875 C 3.265625 -1.09375 3.515625 -1.046875 3.828125 -1.046875 C 3.859375 -1.046875 3.910156 -1.046875 3.984375 -1.046875 C 4.054688 -1.054688 4.140625 -1.066406 4.234375 -1.078125 C 4.335938 -1.097656 4.441406 -1.125 4.546875 -1.15625 C 4.660156 -1.1875 4.765625 -1.226562 4.859375 -1.28125 C 4.898438 -1.3125 4.945312 -1.347656 5 -1.390625 C 5.050781 -1.429688 5.101562 -1.484375 5.15625 -1.546875 C 5.21875 -1.617188 5.273438 -1.703125 5.328125 -1.796875 C 5.378906 -1.898438 5.414062 -2.019531 5.4375 -2.15625 Z M 7.109375 -2.15625 "/></g></g><g style="fill:#0debeb;fill-opacity:1;"><g transform="translate(315.171646, 179.194728)"><path style="stroke:none" d="M 6.046875 -3.34375 C 6.046875 -3.664062 6.003906 -3.925781 5.921875 -4.125 C 5.835938 -4.320312 5.75 -4.484375 5.65625 -4.609375 C 5.46875 -4.804688 5.257812 -4.929688 5.03125 -4.984375 C 4.800781 -5.046875 4.582031 -5.078125 4.375 -5.078125 C 4.113281 -5.078125 3.863281 -5.039062 3.625 -4.96875 C 3.382812 -4.90625 3.15625 -4.773438 2.9375 -4.578125 C 2.851562 -4.492188 2.769531 -4.394531 2.6875 -4.28125 C 2.601562 -4.175781 2.523438 -4.046875 2.453125 -3.890625 C 2.378906 -3.742188 2.320312 -3.578125 2.28125 -3.390625 C 2.238281 -3.203125 2.21875 -3 2.21875 -2.78125 C 2.21875 -2.59375 2.242188 -2.378906 2.296875 -2.140625 C 2.347656 -1.910156 2.460938 -1.703125 2.640625 -1.515625 C 2.835938 -1.316406 3.050781 -1.1875 3.28125 -1.125 C 3.507812 -1.070312 3.71875 -1.046875 3.90625 -1.046875 C 4.113281 -1.046875 4.34375 -1.070312 4.59375 -1.125 C 4.851562 -1.1875 5.101562 -1.320312 5.34375 -1.53125 C 5.53125 -1.695312 5.691406 -1.925781 5.828125 -2.21875 C 5.972656 -2.519531 6.046875 -2.894531 6.046875 -3.34375 Z M 7.796875 -3.40625 C 7.796875 -3.0625 7.753906 -2.75 7.671875 -2.46875 C 7.597656 -2.1875 7.503906 -1.929688 7.390625 -1.703125 C 7.273438 -1.484375 7.144531 -1.289062 7 -1.125 C 6.863281 -0.96875 6.722656 -0.832031 6.578125 -0.71875 C 6.265625 -0.457031 5.878906 -0.242188 5.421875 -0.078125 C 4.972656 0.0859375 4.429688 0.171875 3.796875 0.171875 C 3.242188 0.171875 2.769531 0.109375 2.375 -0.015625 C 1.976562 -0.148438 1.660156 -0.316406 1.421875 -0.515625 C 1.304688 -0.609375 1.191406 -0.71875 1.078125 -0.84375 C 0.960938 -0.976562 0.859375 -1.132812 0.765625 -1.3125 C 0.679688 -1.488281 0.609375 -1.691406 0.546875 -1.921875 C 0.492188 -2.160156 0.46875 -2.425781 0.46875 -2.71875 C 0.46875 -3.0625 0.503906 -3.375 0.578125 -3.65625 C 0.648438 -3.945312 0.742188 -4.203125 0.859375 -4.421875 C 0.984375 -4.648438 1.113281 -4.847656 1.25 -5.015625 C 1.394531 -5.191406 1.539062 -5.335938 1.6875 -5.453125 C 1.90625 -5.640625 2.132812 -5.789062 2.375 -5.90625 C 2.613281 -6.019531 2.851562 -6.101562 3.09375 -6.15625 C 3.332031 -6.21875 3.566406 -6.253906 3.796875 -6.265625 C 4.035156 -6.285156 4.269531 -6.296875 4.5 -6.296875 C 4.6875 -6.296875 4.878906 -6.289062 5.078125 -6.28125 C 5.273438 -6.269531 5.472656 -6.242188 5.671875 -6.203125 C 5.878906 -6.160156 6.082031 -6.09375 6.28125 -6 C 6.476562 -5.914062 6.664062 -5.800781 6.84375 -5.65625 C 6.957031 -5.5625 7.066406 -5.445312 7.171875 -5.3125 C 7.285156 -5.1875 7.390625 -5.03125 7.484375 -4.84375 C 7.578125 -4.664062 7.648438 -4.457031 7.703125 -4.21875 C 7.765625 -3.988281 7.796875 -3.71875 7.796875 -3.40625 Z M 7.796875 -3.40625 "/></g></g><g style="fill:#0debeb;fill-opacity:1;"><g transform="translate(324.956008, 179.194728)"><path style="stroke:none" d="M 2.75 -4.5625 L 2.6875 -4.5625 L 2.640625 -4.046875 L 1.78125 0 L 0.171875 0 L 1.484375 -6.125 L 3.75 -6.125 L 4.546875 -1.6875 L 4.578125 -1.6875 L 7.265625 -6.125 L 9.53125 -6.125 L 8.234375 0 L 6.625 0 L 7.484375 -4.046875 L 7.65625 -4.5625 L 7.59375 -4.5625 L 4.78125 0 L 3.625 0 Z M 2.75 -4.5625 "/></g></g><g style="fill:#0debeb;fill-opacity:1;"><g transform="translate(336.104411, 179.194728)"><path style="stroke:none" d="M 0.75 -1.4375 L 2.359375 -1.4375 L 2.0625 0 L 0.453125 0 Z M 0.75 -1.4375 "/></g></g><g style="fill:#0debeb;fill-opacity:1;"><g transform="translate(341.315732, 179.194728)"><path style="stroke:none" d="M 4.40625 -2.296875 L 3.953125 -4.578125 L 2.53125 -2.296875 Z M 1.125 0 L -0.5625 0 L 3.484375 -6.125 L 5.078125 -6.125 L 6.515625 0 L 4.84375 0 L 4.5625 -1.25 L 1.921875 -1.25 Z M 1.125 0 "/></g></g><g style="fill:#0debeb;fill-opacity:1;"><g transform="translate(349.814751, 179.194728)"><path style="stroke:none" d="M 6.65625 -2.390625 C 6.613281 -2.234375 6.570312 -2.070312 6.53125 -1.90625 C 6.488281 -1.738281 6.429688 -1.578125 6.359375 -1.421875 C 6.285156 -1.265625 6.195312 -1.113281 6.09375 -0.96875 C 5.988281 -0.820312 5.859375 -0.679688 5.703125 -0.546875 C 5.515625 -0.378906 5.3125 -0.25 5.09375 -0.15625 C 4.882812 -0.0625 4.671875 0.00390625 4.453125 0.046875 C 4.234375 0.0976562 4.007812 0.128906 3.78125 0.140625 C 3.5625 0.160156 3.34375 0.171875 3.125 0.171875 C 2.976562 0.171875 2.816406 0.164062 2.640625 0.15625 C 2.472656 0.15625 2.296875 0.140625 2.109375 0.109375 C 1.929688 0.078125 1.753906 0.03125 1.578125 -0.03125 C 1.398438 -0.101562 1.238281 -0.203125 1.09375 -0.328125 C 0.925781 -0.460938 0.78125 -0.644531 0.65625 -0.875 C 0.539062 -1.101562 0.484375 -1.378906 0.484375 -1.703125 C 0.484375 -1.796875 0.488281 -1.898438 0.5 -2.015625 C 0.507812 -2.140625 0.53125 -2.265625 0.5625 -2.390625 L 1.359375 -6.125 L 2.96875 -6.125 L 2.203125 -2.5625 C 2.179688 -2.46875 2.164062 -2.375 2.15625 -2.28125 C 2.144531 -2.195312 2.140625 -2.117188 2.140625 -2.046875 C 2.140625 -1.859375 2.171875 -1.707031 2.234375 -1.59375 C 2.304688 -1.476562 2.382812 -1.390625 2.46875 -1.328125 C 2.601562 -1.222656 2.753906 -1.15625 2.921875 -1.125 C 3.097656 -1.09375 3.253906 -1.078125 3.390625 -1.078125 C 3.648438 -1.078125 3.875 -1.109375 4.0625 -1.171875 C 4.25 -1.234375 4.40625 -1.320312 4.53125 -1.4375 C 4.695312 -1.582031 4.816406 -1.753906 4.890625 -1.953125 C 4.960938 -2.148438 5.023438 -2.351562 5.078125 -2.5625 L 5.84375 -6.125 L 7.453125 -6.125 Z M 6.65625 -2.390625 "/></g></g></g></svg>